<svg width="50" height="50" viewBox="0 0 50 50" fill="none" xmlns="http://www.w3.org/2000/svg">
<path d="M43.7878 44.7878H7.31565V8.31565H29.2321L32.5477 5H7.31565C6.43628 5 5.59294 5.34933 4.97113 5.97113C4.34933 6.59294 4 7.43629 4 8.31565V44.7878C4 45.6672 4.34933 46.5105 4.97113 47.1323C5.59294 47.7541 6.43628 48.1035 7.31565 48.1035H43.7878C44.6672 48.1035 45.5105 47.7541 46.1323 47.1323C46.7541 46.5105 47.1034 45.6672 47.1034 44.7878V19.9204L43.7878 23.2361V44.7878Z" fill="#FFFFFE"/>
<path d="M43.7878 44.7878H7.31565V8.31565H29.2321L32.5477 5H7.31565C6.43628 5 5.59294 5.34933 4.97113 5.97113C4.34933 6.59294 4 7.43629 4 8.31565V44.7878C4 45.6672 4.34933 46.5105 4.97113 47.1323C5.59294 47.7541 6.43628 48.1035 7.31565 48.1035H43.7878C44.6672 48.1035 45.5105 47.7541 46.1323 47.1323C46.7541 46.5105 47.1034 45.6672 47.1034 44.7878V19.9204L43.7878 23.2361V44.7878Z" stroke="#FFFFFE"/>
<path d="M46.5694 8.11113L41.8889 3.43058C41.6811 3.22229 41.4344 3.05703 41.1627 2.94427C40.891 2.83151 40.5997 2.77347 40.3055 2.77347C40.0114 2.77347 39.7201 2.83151 39.4484 2.94427C39.1767 3.05703 38.9299 3.22229 38.7222 3.43058L19.6805 22.5834L18.1389 29.2639C18.0732 29.5877 18.0801 29.9221 18.1591 30.2429C18.2381 30.5638 18.3872 30.8631 18.5957 31.1195C18.8042 31.3758 19.0669 31.5827 19.365 31.7254C19.663 31.868 19.989 31.9428 20.3194 31.9445C20.4902 31.9633 20.6625 31.9633 20.8333 31.9445L27.5694 30.4584L46.5694 11.2778C46.7777 11.0701 46.943 10.8233 47.0557 10.5516C47.1685 10.2799 47.2265 9.98863 47.2265 9.69447C47.2265 9.4003 47.1685 9.10902 47.0557 8.83733C46.943 8.56563 46.7777 8.31885 46.5694 8.11113V8.11113ZM26.125 27.8889L21.0416 29.0139L22.2222 23.9722L36.5555 9.54169L40.4722 13.4584L26.125 27.8889ZM42.0416 11.8889L38.125 7.97224L40.2777 5.7778L44.2222 9.72224L42.0416 11.8889Z" fill="#FFFFFE"/>
</svg>
