<svg width="50" height="50" viewBox="0 0 50 50" fill="none" xmlns="http://www.w3.org/2000/svg">
<path d="M13 20.9823C12.9989 18.4871 13.7745 16.0536 15.2189 14.0199C16.6633 11.9861 18.7049 10.4531 21.06 9.6339C20.9688 9.06209 21.0026 8.4773 21.1592 7.91986C21.3158 7.36242 21.5913 6.8456 21.9668 6.40507C22.3423 5.96454 22.8089 5.61078 23.3343 5.3682C23.8597 5.12562 24.4314 5 25.01 5C25.5886 5 26.1603 5.12562 26.6857 5.3682C27.2111 5.61078 27.6777 5.96454 28.0532 6.40507C28.4287 6.8456 28.7042 7.36242 28.8608 7.91986C29.0174 8.4773 29.0512 9.06209 28.96 9.6339C31.3113 10.4565 33.3486 11.9909 34.7892 14.0244C36.2299 16.0579 37.0025 18.4896 37 20.9823V32.9911L43 36.9941V38.9956H7V36.9941L13 32.9911V20.9823ZM29 40.997C29 42.0587 28.5786 43.0769 27.8284 43.8276C27.0783 44.5783 26.0609 45 25 45C23.9391 45 22.9217 44.5783 22.1716 43.8276C21.4214 43.0769 21 42.0587 21 40.997H29Z" fill="#FFFFFE"/>
</svg>
