<svg width="50" height="50" viewBox="0 0 50 50" fill="none" xmlns="http://www.w3.org/2000/svg">
<path d="M24.9999 16.6667C22.5458 16.6667 20.8333 18.3792 20.8333 20.8333C20.8333 23.2875 22.5458 25 24.9999 25C27.4541 25 29.1666 23.2875 29.1666 20.8333C29.1666 18.3792 27.4541 16.6667 24.9999 16.6667Z" fill="#FFFFFE"/>
<mask id="path-2-inside-1" fill="white">
<path d="M27.0833 34.525H22.9166C21.4944 34.5279 20.1157 35.0152 19.0076 35.9067C17.8995 36.7982 17.1282 38.0406 16.8208 39.4292C19.2541 40.8417 22.05 41.6667 25 41.6667C27.95 41.6667 30.7458 40.8417 33.1791 39.4313C32.8722 38.0423 32.1011 36.7994 30.9929 35.9075C29.8848 35.0156 28.5058 34.528 27.0833 34.525V34.525Z"/>
</mask>
<path d="M27.0833 34.525H22.9166C21.4944 34.5279 20.1157 35.0152 19.0076 35.9067C17.8995 36.7982 17.1282 38.0406 16.8208 39.4292C19.2541 40.8417 22.05 41.6667 25 41.6667C27.95 41.6667 30.7458 40.8417 33.1791 39.4313C32.8722 38.0423 32.1011 36.7994 30.9929 35.9075C29.8848 35.0156 28.5058 34.528 27.0833 34.525V34.525Z" fill="#FFFFFE"/>
<path d="M22.9166 34.525V23.525H22.9056L22.8945 23.525L22.9166 34.525ZM16.8208 39.4292L6.08075 37.0519L4.34256 44.9048L11.2985 48.9426L16.8208 39.4292ZM33.1791 39.4313L38.6953 48.9482L45.6561 44.9136L43.92 37.0577L33.1791 39.4313ZM27.0833 23.525H22.9166V45.525H27.0833V23.525ZM22.8945 23.525C18.9718 23.5329 15.1688 24.8771 12.1124 27.336L25.9028 44.4774C25.0625 45.1533 24.0171 45.5228 22.9387 45.525L22.8945 23.525ZM12.1124 27.336C9.05593 29.795 6.92852 33.2219 6.08075 37.0519L27.5608 41.8065C27.3278 42.8593 26.743 43.8014 25.9028 44.4774L12.1124 27.336ZM11.2985 48.9426C15.2871 51.2579 19.9737 52.6667 25 52.6667V30.6667C24.1262 30.6667 23.2212 30.4255 22.3431 29.9158L11.2985 48.9426ZM25 52.6667C30.0259 52.6667 34.7102 51.2581 38.6953 48.9482L27.6629 29.9144C26.7814 30.4253 25.874 30.6667 25 30.6667V52.6667ZM43.92 37.0577C43.0734 33.2266 40.9464 29.7983 37.8899 27.3383L24.0959 44.4767C23.2557 43.8005 22.671 42.858 22.4383 41.8049L43.92 37.0577ZM37.8899 27.3383C34.8334 24.8782 31.0297 23.5332 27.1062 23.525L27.0604 45.525C25.9818 45.5228 24.9362 45.153 24.0959 44.4767L37.8899 27.3383Z" fill="#FFFFFE" mask="url(#path-2-inside-1)"/>
<mask id="path-4-inside-2" fill="white">
<path d="M25.0001 4.16666C13.7063 4.16666 4.16675 13.7062 4.16675 25C4.16675 31.6437 7.48341 37.6625 12.5001 41.5083V41.6667H12.7126C16.1876 44.2604 20.4438 45.8333 25.0001 45.8333C29.5563 45.8333 33.8126 44.2604 37.2876 41.6667H37.5001V41.5083C42.5168 37.6625 45.8334 31.6458 45.8334 25C45.8334 13.7062 36.2938 4.16666 25.0001 4.16666ZM16.8209 39.4312C17.1279 38.0425 17.8991 36.7998 19.0073 35.9083C20.1155 35.0167 21.4945 34.5296 22.9167 34.5271H27.0834C28.5056 34.5299 29.8844 35.0173 30.9925 35.9087C32.1006 36.8002 32.8719 38.0427 33.1792 39.4312C30.7459 40.8417 27.9501 41.6667 25.0001 41.6667C22.0501 41.6667 19.2542 40.8417 16.8209 39.4312ZM36.6876 36.7521C35.8929 34.8601 34.5579 33.2446 32.8495 32.1077C31.1412 30.9708 29.1355 30.363 27.0834 30.3604H22.9167C20.8647 30.363 18.859 30.9708 17.1506 32.1077C15.4423 33.2446 14.1073 34.8601 13.3126 36.7521C10.2563 33.7125 8.33342 29.5333 8.33342 25C8.33342 15.9646 15.9647 8.33332 25.0001 8.33332C34.0355 8.33332 41.6668 15.9646 41.6668 25C41.6668 29.5333 39.7438 33.7125 36.6876 36.7521Z"/>
</mask>
<path d="M25.0001 4.16666C13.7063 4.16666 4.16675 13.7062 4.16675 25C4.16675 31.6437 7.48341 37.6625 12.5001 41.5083V41.6667H12.7126C16.1876 44.2604 20.4438 45.8333 25.0001 45.8333C29.5563 45.8333 33.8126 44.2604 37.2876 41.6667H37.5001V41.5083C42.5168 37.6625 45.8334 31.6458 45.8334 25C45.8334 13.7062 36.2938 4.16666 25.0001 4.16666ZM16.8209 39.4312C17.1279 38.0425 17.8991 36.7998 19.0073 35.9083C20.1155 35.0167 21.4945 34.5296 22.9167 34.5271H27.0834C28.5056 34.5299 29.8844 35.0173 30.9925 35.9087C32.1006 36.8002 32.8719 38.0427 33.1792 39.4312C30.7459 40.8417 27.9501 41.6667 25.0001 41.6667C22.0501 41.6667 19.2542 40.8417 16.8209 39.4312ZM36.6876 36.7521C35.8929 34.8601 34.5579 33.2446 32.8495 32.1077C31.1412 30.9708 29.1355 30.363 27.0834 30.3604H22.9167C20.8647 30.363 18.859 30.9708 17.1506 32.1077C15.4423 33.2446 14.1073 34.8601 13.3126 36.7521C10.2563 33.7125 8.33342 29.5333 8.33342 25C8.33342 15.9646 15.9647 8.33332 25.0001 8.33332C34.0355 8.33332 41.6668 15.9646 41.6668 25C41.6668 29.5333 39.7438 33.7125 36.6876 36.7521Z" fill="#FFFFFE"/>
<path d="M12.5001 41.5083H26.5001V34.6004L21.0177 30.3975L12.5001 41.5083ZM12.5001 41.6667H-1.49992V55.6667H12.5001V41.6667ZM12.7126 41.6667L21.0867 30.4473L17.3613 27.6667H12.7126V41.6667ZM37.2876 41.6667V27.6667H32.6388L28.9134 30.4473L37.2876 41.6667ZM37.5001 41.6667V55.6667H51.5001V41.6667H37.5001ZM37.5001 41.5083L28.9824 30.3975L23.5001 34.6004V41.5083H37.5001ZM16.8209 39.4312L3.15096 36.4093L0.940508 46.4083L9.80028 51.5437L16.8209 39.4312ZM22.9167 34.5271V20.5271H22.9046L22.8924 20.5271L22.9167 34.5271ZM27.0834 34.5271L27.1115 20.5271L27.0975 20.5271H27.0834V34.5271ZM33.1792 39.4312L40.1999 51.5437L49.0621 46.4069L46.8484 36.4056L33.1792 39.4312ZM36.6876 36.7521L23.78 42.1737L31.8268 61.3314L46.56 46.6786L36.6876 36.7521ZM27.0834 30.3604L27.1011 16.3604L27.0922 16.3604H27.0834V30.3604ZM22.9167 30.3604V16.3604H22.9079L22.8991 16.3604L22.9167 30.3604ZM13.3126 36.7521L3.44019 46.6786L18.1733 61.3314L26.2202 42.1737L13.3126 36.7521ZM25.0001 -9.83334C5.97435 -9.83334 -9.83325 5.97425 -9.83325 25H18.1667C18.1667 21.4382 21.4383 18.1667 25.0001 18.1667V-9.83334ZM-9.83325 25C-9.83325 36.3843 -4.17199 46.3678 3.98243 52.6191L21.0177 30.3975C19.1388 28.9571 18.1667 26.9032 18.1667 25H-9.83325ZM-1.49992 41.5083V41.6667H26.5001V41.5083H-1.49992ZM12.5001 55.6667H12.7126V27.6667H12.5001V55.6667ZM4.33843 52.886C10.0176 57.1249 17.1685 59.8333 25.0001 59.8333V31.8333C23.7191 31.8333 22.3576 31.3959 21.0867 30.4473L4.33843 52.886ZM25.0001 59.8333C32.8316 59.8333 39.9826 57.1249 45.6617 52.886L28.9134 30.4473C27.6426 31.3959 26.281 31.8333 25.0001 31.8333V59.8333ZM37.2876 55.6667H37.5001V27.6667H37.2876V55.6667ZM51.5001 41.6667V41.5083H23.5001V41.6667H51.5001ZM46.0177 52.6191C54.1715 46.3683 59.8334 36.3872 59.8334 25H31.8334C31.8334 26.9045 30.862 28.9566 28.9824 30.3975L46.0177 52.6191ZM59.8334 25C59.8334 5.97425 44.0258 -9.83334 25.0001 -9.83334V18.1667C28.5618 18.1667 31.8334 21.4382 31.8334 25H59.8334ZM30.4909 42.4532C30.1106 44.1732 29.1555 45.7122 27.783 46.8164L10.2316 25.0002C6.64274 27.8875 4.14521 31.9118 3.15096 36.4093L30.4909 42.4532ZM27.783 46.8164C26.4105 47.9206 24.7026 48.524 22.9411 48.5271L22.8924 20.5271C18.2863 20.5351 13.8205 22.1129 10.2316 25.0002L27.783 46.8164ZM22.9167 48.5271H27.0834V20.5271H22.9167V48.5271ZM27.0553 48.527C25.295 48.5235 23.5884 47.9203 22.2168 46.8169L39.7682 25.0006C36.1804 22.1142 31.7163 20.5364 27.1115 20.5271L27.0553 48.527ZM22.2168 46.8169C20.8452 45.7134 19.8905 44.1756 19.5101 42.4569L46.8484 36.4056C45.8533 31.9097 43.356 27.887 39.7682 25.0006L22.2168 46.8169ZM26.1586 27.3188C25.7003 27.5845 25.3079 27.6667 25.0001 27.6667V55.6667C30.5922 55.6667 35.7915 54.0989 40.1999 51.5437L26.1586 27.3188ZM25.0001 27.6667C24.6922 27.6667 24.2998 27.5845 23.8416 27.3188L9.80028 51.5437C14.2087 54.0989 19.4079 55.6667 25.0001 55.6667V27.6667ZM49.5952 31.3305C47.734 26.8993 44.6071 23.1156 40.606 20.4528L25.0931 43.7626C24.5086 43.3737 24.0519 42.8209 23.78 42.1737L49.5952 31.3305ZM40.606 20.4528C36.6049 17.79 31.9072 16.3665 27.1011 16.3604L27.0658 44.3604C26.3637 44.3595 25.6775 44.1516 25.0931 43.7626L40.606 20.4528ZM27.0834 16.3604H22.9167V44.3604H27.0834V16.3604ZM22.8991 16.3604C18.0929 16.3665 13.3953 17.79 9.39418 20.4528L24.9071 43.7626C24.3226 44.1516 23.6365 44.3595 22.9344 44.3604L22.8991 16.3604ZM9.39418 20.4528C5.39305 23.1156 2.2662 26.8993 0.404977 31.3305L26.2202 42.1737C25.9483 42.8209 25.4916 43.3737 24.9071 43.7626L9.39418 20.4528ZM23.185 26.8256C22.5554 26.1994 22.3334 25.5139 22.3334 25H-5.66658C-5.66658 33.5528 -2.04276 41.2256 3.44019 46.6786L23.185 26.8256ZM22.3334 25C22.3334 24.4833 22.5553 23.8005 23.178 23.1779C23.8006 22.5552 24.4834 22.3333 25.0001 22.3333V-5.66668C8.23268 -5.66668 -5.66658 8.23259 -5.66658 25H22.3334ZM25.0001 22.3333C25.5168 22.3333 26.1996 22.5552 26.8222 23.1779C27.4448 23.8005 27.6668 24.4833 27.6668 25H55.6668C55.6668 8.23259 41.7675 -5.66668 25.0001 -5.66668V22.3333ZM27.6668 25C27.6668 25.5139 27.4447 26.1994 26.8152 26.8256L46.56 46.6786C52.0429 41.2256 55.6668 33.5528 55.6668 25H27.6668Z" fill="#FFFFFE" mask="url(#path-4-inside-2)"/>
<mask id="path-6-inside-3" fill="white">
<path d="M25.0001 12.5C20.2501 12.5 16.6667 16.0833 16.6667 20.8333C16.6667 25.5833 20.2501 29.1667 25.0001 29.1667C29.7501 29.1667 33.3334 25.5833 33.3334 20.8333C33.3334 16.0833 29.7501 12.5 25.0001 12.5ZM25.0001 25C22.5459 25 20.8334 23.2875 20.8334 20.8333C20.8334 18.3792 22.5459 16.6667 25.0001 16.6667C27.4542 16.6667 29.1667 18.3792 29.1667 20.8333C29.1667 23.2875 27.4542 25 25.0001 25Z"/>
</mask>
<path d="M25.0001 12.5C20.2501 12.5 16.6667 16.0833 16.6667 20.8333C16.6667 25.5833 20.2501 29.1667 25.0001 29.1667C29.7501 29.1667 33.3334 25.5833 33.3334 20.8333C33.3334 16.0833 29.7501 12.5 25.0001 12.5ZM25.0001 25C22.5459 25 20.8334 23.2875 20.8334 20.8333C20.8334 18.3792 22.5459 16.6667 25.0001 16.6667C27.4542 16.6667 29.1667 18.3792 29.1667 20.8333C29.1667 23.2875 27.4542 25 25.0001 25Z" fill="#FFFFFE"/>
<path d="M25.0001 4.5C15.8318 4.5 8.66675 11.6651 8.66675 20.8333H24.6667C24.6667 20.6593 24.6979 20.5744 24.7066 20.553C24.7162 20.5295 24.7195 20.5318 24.709 20.5423C24.6985 20.5527 24.6963 20.5495 24.7198 20.5399C24.7411 20.5312 24.826 20.5 25.0001 20.5V4.5ZM8.66675 20.8333C8.66675 30.0016 15.8318 37.1667 25.0001 37.1667V21.1667C24.826 21.1667 24.7411 21.1355 24.7198 21.1268C24.6963 21.1172 24.6985 21.1139 24.709 21.1244C24.7195 21.1349 24.7162 21.1371 24.7066 21.1136C24.6979 21.0923 24.6667 21.0074 24.6667 20.8333H8.66675ZM25.0001 37.1667C34.1684 37.1667 41.3334 30.0016 41.3334 20.8333H25.3334C25.3334 21.0074 25.3023 21.0923 25.2936 21.1136C25.2839 21.1371 25.2807 21.1349 25.2911 21.1244C25.3016 21.1139 25.3039 21.1172 25.2804 21.1268C25.259 21.1355 25.1742 21.1667 25.0001 21.1667V37.1667ZM41.3334 20.8333C41.3334 11.6651 34.1684 4.5 25.0001 4.5V20.5C25.1742 20.5 25.259 20.5312 25.2804 20.5399C25.3039 20.5495 25.3016 20.5527 25.2911 20.5423C25.2807 20.5318 25.2839 20.5295 25.2936 20.553C25.3023 20.5744 25.3334 20.6593 25.3334 20.8333H41.3334ZM25.0001 17C25.6829 17 26.7445 17.2713 27.6533 18.1801C28.5621 19.0889 28.8334 20.1505 28.8334 20.8333H12.8334C12.8334 23.9704 13.961 27.1152 16.3396 29.4938C18.7182 31.8724 21.8631 33 25.0001 33V17ZM28.8334 20.8333C28.8334 21.5162 28.5621 22.5777 27.6533 23.4865C26.7445 24.3953 25.6829 24.6667 25.0001 24.6667V8.66667C21.8631 8.66667 18.7182 9.79425 16.3396 12.1728C13.961 14.5514 12.8334 17.6963 12.8334 20.8333H28.8334ZM25.0001 24.6667C24.3172 24.6667 23.2557 24.3953 22.3469 23.4865C21.4381 22.5777 21.1667 21.5162 21.1667 20.8333H37.1667C37.1667 17.6963 36.0392 14.5514 33.6606 12.1728C31.282 9.79425 28.1371 8.66667 25.0001 8.66667V24.6667ZM21.1667 20.8333C21.1667 20.1505 21.4381 19.0889 22.3469 18.1801C23.2557 17.2713 24.3172 17 25.0001 17V33C28.1371 33 31.282 31.8724 33.6606 29.4938C36.0392 27.1152 37.1667 23.9704 37.1667 20.8333H21.1667Z" fill="#FFFFFE" mask="url(#path-6-inside-3)"/>
</svg>
