<svg xmlns="http://www.w3.org/2000/svg" fill="none" viewBox="0 0 228 67"  xmlns:v="https://vecta.io/nano"><style><![CDATA[.B{stroke:#121629}.C{stroke-width:2}.D{fill:#fffce7}.E{fill:#fffffe}.F{fill:#ead4ac}.G{color-interpolation-filters:sRGB}]]></style><g filter="url(#A)"><path d="M17.813 17.086c-1.23.893-1.582 1.984-1.68 3.492-.113 1.745.807 2.637 1.68 4.157.81 1.411 1.053 2.599 2.519 3.325s4.199-1.496 4.199-1.496 2.848 2.529 4.703 2.328c1.155-.125 1.953-.106 2.855-.831 1.548-1.245 1.235-3.052.84-4.988-.343-1.681-.909-2.661-2.183-3.824-.844-.77-1.385-1.324-2.519-1.496-1.541-.234-3.695 1.496-3.695 1.496s-.898-1.579-1.848-2.161c-1.617-.991-3.337-1.113-4.871 0z" class="B C D"/><path d="M8.566 26.13c-1.057 2.997 1.384 4.071 3.368 4.546 1.942.465 4.452.3 8.87-1.32s.632-5.863-1.468-6.429.111-2.558-2.212-4.737-4.897-.961-5.782 1.139.714 4.222.714 4.222-2.433-.418-3.49 2.578z" fill="#fff" class="B C"/><path d="M38.973 24.466c-.878-1.163-1.625-1.874-1.68-3.325-.046-1.231.109-2.141 1.008-2.993 1.28-1.213 5.039.333 5.039.333s1.844-3.149 3.695-2.827c2.15.375 3.716 2.225 3.191 4.323-.39 1.561-1.68 2.494-3.191 3.159-.217.096 1.3 3.298 0 4.489-1.203 1.103-3.695.166-4.199 0s-2.692-1.607-3.863-3.159z" class="B C D"/><path d="M45.212 22.722c.72 1.53.625 3.427-.336 4.822-.859 1.248-2.082 1.178-3.527 1.663-2.442.82-6.55.831-6.55.831s-5.995.163-6.55-2.494c-.375-1.795 2.687-3.99 2.687-3.99s-1.754-4.49 0-6.318c1.572-1.637 3.847-2.525 5.878-1.496 1.976 1 2.184 5.154 2.184 5.154s2.403-.231 3.359 0c1.722.416 2.107.239 2.855 1.829z" class="B C E"/><path d="M5.899 13.428c-2.635-1.047-4.139 2.854-3.883 4.224s1.119 1.581 1.119 1.581-1.149 1.149-1.23 2.568.015 3.352 2.16 3.989c3.289.976 5.049.6 5.374-1.522s2.19.096 3.875-2.26.452-4.944-1.405-5.823-3.548.747-3.548.747.175-2.456-2.461-3.502z" fill="#fff" class="B C"/><path d="M8.162 17.995s-1.493 2.562-.985 3.801c.698 1.704 2.425 1.968 4.28 2.054 1.966.09 4.735-1.714 4.735-1.714s2.883-1.504 2.734-3.066c-.141-1.476-2.971-2.398-2.971-2.398s.367-2.286-.324-3.457c-.868-1.472-2.191-2.179-3.906-2.024-1.696.153-2.573 1.193-3.453 2.636-.941 1.545-.11 4.168-.11 4.168z" class="B C D"/><path d="M40.62 17.233c-1.371.515-2.268 1.03-3.692.682-1.208-.296-2.049-.694-2.628-1.784-.825-1.553 1.712-4.703 1.712-4.703s-2.55-2.623-1.726-4.295c.956-1.943 3.185-2.923 5.077-1.845 1.408.801 1.959 2.286 2.188 3.907.033.233 3.561-.327 4.359 1.237.739 1.449-.857 3.562-1.157 3.996s-2.303 2.118-4.132 2.805z" class="B C D"/><path d="M28.07 4.45c-2.635-1.047-4.139 2.854-3.883 4.224s1.119 1.581 1.119 1.581-1.149 1.149-1.23 2.568.015 3.352 2.16 3.989c3.289.976 5.049.6 5.374-1.522s2.19.096 3.875-2.26.452-4.944-1.406-5.823-3.548.747-3.548.747.174-2.455-2.461-3.502z" fill="#fff" class="B C"/><path d="M5.743 24.444S2.35 25.842 2.351 26.97c.002 1.552 1.265 2.299 2.685 2.947 1.504.686 4.239.14 4.239.14s2.727-.274 3.109-1.543c.36-1.198-1.554-2.806-1.554-2.806s1.014-1.674.848-2.806c-.209-1.423-1.015-2.391-2.402-2.806-1.372-.411-2.387.128-3.533.982-1.226.914 0 3.367 0 3.367z" class="B C D"/><path d="M23.859 11.1c-1.231.893-1.582 1.984-1.68 3.492-.113 1.745.807 2.637 1.68 4.157.81 1.411 1.053 2.599 2.519 3.325s4.199-1.496 4.199-1.496 2.848 2.529 4.703 2.328c1.155-.125 1.953-.106 2.855-.831 1.549-1.245 1.235-3.052.84-4.988-.343-1.681-.909-2.661-2.183-3.824-.844-.77-1.385-1.324-2.519-1.496-1.541-.234-3.695 1.496-3.695 1.496s-.898-1.579-1.848-2.161c-1.617-.991-3.337-1.113-4.871 0z" class="B C D"/><path d="M11.979 12.608c-.441 2.819 3.752 3.471 5.048 2.929s1.31-1.438 1.31-1.438 1.394.888 2.814.667 3.309-.727 3.455-2.976c.224-3.448-.544-5.101-2.713-4.971s-.398-2.178-3.105-3.338-4.987.605-5.438 2.622 1.536 3.337 1.536 3.337-2.466.35-2.907 3.168z" fill="#fff" class="B C"/><path d="M48.527 13.805c.736 1.019.94 2.418.451 3.57-.437 1.031-1.325 1.148-2.291 1.702-1.634.936-4.579 1.512-4.579 1.512s-4.277.946-5.056-.918c-.527-1.26 1.355-3.287 1.355-3.287s-1.903-3.039-.907-4.617c.892-1.413 2.397-2.376 4.002-1.905 1.561.458 2.306 3.465 2.306 3.465s1.691-.5 2.41-.464c1.295.066 1.546-.116 2.311.942z" class="B C E"/><ellipse cx="18.139" cy="8.648" rx="2.015" ry="1.995" class="F"/><path d="M15.377 16.822c-1.13 2.416 1.225 3.195 3.152 3.51 1.886.309 4.349.099 8.726-1.328s.806-4.683-1.232-5.067.19-2.038-2.014-3.698a3.82 3.82 0 0 0-5.697 1.087c-.934 1.698.564 3.336.564 3.336s-2.368-.257-3.499 2.16z" fill="#fff" class="B C"/><path d="M27.447 29.869c-1.465-.069-2.495.049-3.66-.832-.989-.748-1.599-1.445-1.692-2.673-.131-1.75 3.464-3.637 3.464-3.637s-1.282-3.412.147-4.62c1.66-1.404 4.098-1.423 5.399.312.968 1.291.876 2.869.433 4.447-.064.227 3.397 1.105 3.499 2.855.094 1.62-2.221 2.928-2.671 3.207s-2.965 1.034-4.92.941z" class="B C D"/><path d="M18.949 26.788s3.786 2.138 5.139 1.266c1.86-1.199 1.972-2.972 1.865-4.817-.113-1.955-2.468-4.126-2.468-4.126s-2.025-2.373-3.784-1.756c-1.662.583-2.4 3.637-2.4 3.637s-2.639.33-3.893 1.361c-1.578 1.296-2.236 2.806-1.873 4.441.36 1.617 1.638 2.164 3.375 2.591 1.859.457 4.039-2.597 4.039-2.597z" class="B C E"/><ellipse cx="33.591" cy="15.299" rx="2.015" ry="1.995" class="F"/><ellipse cx="20.155" cy="23.28" rx="1.68" ry="1.663" class="F"/><ellipse cx="7.726" cy="25.275" rx="1.008" ry=".998" class="F"/><path d="M3.023 28.923l12.093-1.982s5.192-.523 12.868-.523c5.463 0 13.669 1.973 13.669 1.973l2.195-2.162c2.014-1.983 5.403-.335 5.086 2.473l-2.442 21.672-4.246 7.538-3.324 5.415H7.918L3.023 28.924z" fill="#c33c54"/><path d="M7.812 63.02L3.056 29.072c-.02-.139.078-.179.263-.231.682-.191.376-.092 6.087-1.009l2.332 35.495H8.294c-.249 0-.457-.133-.482-.307zm10.831.307l-1.512-36.67c6.382-.978 8.902-.49 8.902-.49l.168 37.16h-7.558zm13.953 0h6.213l3.171-34.486s-2.343-.729-7.213-1.428l-2.171 35.914zm12.244-9.586l-2.938 4.644 2.418-32.217 2.819-2.761-2.3 30.334z" fill-rule="evenodd" class="E"/><path d="M8.294 63.328h3.444m-3.444 0c-.249 0-.457-.133-.482-.307m.482.307l-.482-.307m30.997.307l3.171-34.486m-3.171 34.486h-6.213m6.213 0l3.093-4.942m.078-29.544s-2.343-.729-7.213-1.428m7.213 1.428l2.34-2.674m-18.288 0s-2.519-.488-8.902.49m8.902-.49l.168 37.16m-.168-37.16c4.914.441 3.863.547 8.734 1.245m12.373-4.006l-2.819 2.761m2.819-2.761l-2.3 30.334m2.3-30.334l1.274-1.14M9.404 27.833l2.332 35.495M9.404 27.833l7.726-1.175m-7.726 1.175l-6.087 1.009m8.419 34.486h6.906l-1.512-36.67m1.512 36.67h13.953l2.171-35.914m9.554-1.245l-2.418 32.217 2.938-4.644 1.788-2.906M7.811 63.02L3.054 29.072c-.02-.139.078-.179.263-.231m-.263.231c-.009-.067.084-.109.147-.084s.116.003.116-.146m45.096-6.574c.294-.263.894-.101.864.233m-.864-.233l.145-.129c.293-.262.755-.029.719.362l-2.611 28.222c-.004.039-.017.077-.039.113m.039-.113c-.004.039-.016.076-.036.109l-.002.004" class="B C"/><path d="M6.718 57.044h32.584v5.969H7.558l-.84-5.969z" fill="#5c3b41" fill-opacity=".35" style="mix-blend-mode:hard-light"/><path d="M38.966 57.204l8.566-14.14-.672 8.011-7.894 11.938v-5.809z" fill="#5c3b41" fill-opacity=".35" style="mix-blend-mode:hard-light"/></g><g filter="url(#B)" class="E"><path d="M74.048 42.712l-3.12.336-1.152.096a6.4 6.4 0 0 0-1.344.144l-.336 10.176v1.68c-1.344.16-3.296.24-5.856.24-2.208 0-3.536-.16-3.984-.48l.048-7.824v-6.288l.048-18.576c1.376-.224 3.36-.432 5.952-.624l7.536-.288c3.936 0 7.072.288 9.408.864v.912.816l.096 2.64-.096 3.024-3.504.192-1.776.096-.864.048-2.592.144-4.128.24-.144.336c-.096.288-.144.704-.144 1.248a12.37 12.37 0 0 0 .096 1.536c.064.48.128.768.192.864.8.096 1.568.144 2.304.144 1.472 0 2.768-.08 3.888-.24.16.352.24 1.024.24 2.016v.96l-.048 1.152-.048.912v.912l.096 2.256c0 .16-.256.272-.768.336zm15.607-22.416l.048 2.16c0 .32.032.896.096 1.728l.096 3.072c-.16.192-.416.288-.768.288-.224 0-.528-.016-.912-.048-.384-.064-.704-.096-.96-.096-.384 0-.992-.032-1.824-.096-.32-.032-.864-.048-1.632-.048l-1.92.048-.096-2.64-.048-.768-.048-3.744 7.968.144zm.192 10.56l-.096 7.296-.048 2.688-.096 6.624.192 7.248c-.16.224-.496.368-1.008.432-.48.096-1.152.144-2.016.144-.992 0-1.68-.016-2.064-.048-1.248-.064-2.304.032-3.168.288l.24-6.48-.096-5.952-.096-5.664.288-6.864c.448-.064.832-.096 1.152-.096.288 0 .512.016.672.048l4.656.096 1.488.24zm9.841-2.304v1.392l-.048 4.704-.096 10.464.192 9.6c-.16.224-.496.368-1.008.432-.48.096-1.152.144-2.016.144-.992 0-1.68-.016-2.064-.048-1.248-.064-2.304.032-3.168.288l.336-8.544-.192-8.64-.192-9.408a90.31 90.31 0 0 1 .432-9.072l7.92.144-.096 8.544zm9.651 4.176h0c0-.032.016-.048.048-.048.768-.512 1.648-.912 2.64-1.2 1.024-.32 2.032-.48 3.024-.48 2.112 0 3.744.512 4.896 1.536 0 .032.096.144.288.336.032 0 .032.016 0 .048-.032 0-.032.016 0 .048l.432-.288c.768-.512 1.648-.912 2.64-1.2.992-.32 2-.48 3.024-.48 2.112 0 3.744.512 4.896 1.536.896.8 1.344 3.44 1.344 7.92l-.096 6-.096 4.944a77.34 77.34 0 0 0 .096 3.648c-1.76.256-3.488.352-5.184.288h-2.256l-.096-5.568v-2.4l-.144-4.032c-.16-1.664-.384-2.784-.672-3.36s-.784-.864-1.488-.864c-.32 0-.592.128-.816.384-.224.224-.4.704-.528 1.44l-.096 6.24-.096 4.56.096 3.312c-1.76.256-3.488.352-5.184.288h-2.256l-.096-5.568v-2.4l-.096-3.408c0-.032-.016-.08-.048-.144v-.48c-.064-1.056-.176-1.92-.336-2.592-.128-.672-.384-1.136-.768-1.392-.256-.16-.624-.24-1.104-.24-.576 0-1.088.208-1.536.624s-.688 1.104-.72 2.064l-.048 2.208.096 3.504.096 3.6c0 1.44-.064 2.72-.192 3.84-.864.224-1.568.352-2.112.384-.512.064-1.088.08-1.728.048-.288-.032-.752-.048-1.392-.048a23.85 23.85 0 0 0-2.16.096l-.048-8.544-.096-9.456.096-6.672 2.4.192c.544 0 1.072-.032 1.584-.096l.816-.096 1.632-.096c.768 0 1.184.112 1.248.336.064.384.096.944.096 1.68v.048zm39.34 4.848l4.656.192 1.536.096.816.048.096 1.008.192 2.304.144 2.976c0 1.632-.128 3.248-.384 4.848-.224 1.44-.784 2.656-1.68 3.648s-2.032 1.744-3.408 2.256c-2.336.704-4.496 1.056-6.48 1.056-1.536 0-2.928-.24-4.176-.72-2.528-1.12-4.176-3.072-4.944-5.856-.224-.864-.416-1.984-.576-3.36 0 .352-.176-2.512-.528-8.592l.048-2.448c.064-2.88.224-4.992.48-6.336.448-2.56 1.488-4.448 3.12-5.664 1.216-.896 2.88-1.504 4.992-1.824.736-.096 1.488-.144 2.256-.144 3.2 0 5.824.816 7.872 2.448 2.048 1.6 3.072 3.888 3.072 6.864l-.096 1.536v.672a5.89 5.89 0 0 1-.816.048h-.864-2.304c-1.216 0-2.384-.064-3.504-.192-.768-2.624-1.632-3.936-2.592-3.936a3.23 3.23 0 0 1-.528-.048 3.23 3.23 0 0 0-.528-.048c-.512 0-.96.192-1.344.576-.032.032-.144.416-.336 1.152-.608 2.016-.912 4.992-.912 8.928l.192 4.848c.224 2.144.656 3.504 1.296 4.08.32.192.576.32.768.384.352.032.768.016 1.248-.048.512-.096.96-.224 1.344-.384.544-.224.896-.736 1.056-1.536.096-.384.192-.88.288-1.488s.128-.976.096-1.104h-1.152c-1.184.064-2.096-.032-2.736-.288-.064-.672-.096-1.504-.096-2.496v-.528-.624c.032-.32 0-.912-.096-1.776.256 0 .8-.064 1.632-.192 1.28-.224 2.24-.336 2.88-.336zm16.006 6.768l.144 2.352c.096.48.32.992.672 1.536.256.48.592.848 1.008 1.104s.848.384 1.296.384c.672 0 1.216-.352 1.632-1.056.416-.736.592-1.808.528-3.216.928.128 1.92.16 2.976.096l4.512.24c0 1.44-.112 2.896-.336 4.368-.192 1.472-.576 2.592-1.152 3.36-.64.896-1.568 1.504-2.784 1.824-1.184.352-2.576.528-4.176.528-.608 0-1.456-.032-2.544-.096l-2.256-.048c-.992-.128-1.984-.48-2.976-1.056-1.536-1.216-2.672-2.944-3.408-5.184s-1.104-4.672-1.104-7.296c0-2.752.384-5.28 1.152-7.584.64-1.44 1.824-2.56 3.552-3.36s3.648-1.2 5.76-1.2a14.62 14.62 0 0 1 3.36.384c2.464.48 4.256 1.648 5.376 3.504 1.152 1.824 1.728 4.016 1.728 6.576l-.096 2.16c-.608.16-2 .32-4.176.48l-6.096.192h-2.592v1.008zm4.704-8.64c-.48-.288-.912-.432-1.296-.432-1.12 0-1.92.256-2.4.768s-.768 1.232-.864 2.16c-.032.128-.048.272-.048.432 0 .192.096.304.288.336s.672.032 1.44 0h2.112l1.44.048h.624c.096.032.16.032.192 0s.048-.096.048-.192v-.192c0-.672-.128-1.264-.384-1.776-.224-.512-.544-.88-.96-1.104l-.192-.048zm16.624 8.64l.144 2.352c.096.48.32.992.672 1.536.256.48.592.848 1.008 1.104s.848.384 1.296.384c.672 0 1.216-.352 1.632-1.056.416-.736.592-1.808.528-3.216.928.128 1.92.16 2.976.096l4.512.24c0 1.44-.112 2.896-.336 4.368-.192 1.472-.576 2.592-1.152 3.36-.64.896-1.568 1.504-2.784 1.824-1.184.352-2.576.528-4.176.528-.608 0-1.456-.032-2.544-.096l-2.256-.048c-.992-.128-1.984-.48-2.976-1.056-1.536-1.216-2.672-2.944-3.408-5.184s-1.104-4.672-1.104-7.296c0-2.752.384-5.28 1.152-7.584.64-1.44 1.824-2.56 3.552-3.36s3.648-1.2 5.76-1.2a14.62 14.62 0 0 1 3.36.384c2.464.48 4.256 1.648 5.376 3.504 1.152 1.824 1.728 4.016 1.728 6.576l-.096 2.16c-.608.16-2 .32-4.176.48l-6.096.192h-2.592v1.008zm4.704-8.64c-.48-.288-.912-.432-1.296-.432-1.12 0-1.92.256-2.4.768s-.768 1.232-.864 2.16c-.032.128-.048.272-.048.432 0 .192.096.304.288.336s.672.032 1.44 0h2.112l1.44.048h.624c.096.032.16.032.192 0s.048-.096.048-.192v-.192c0-.672-.128-1.264-.384-1.776-.224-.512-.544-.88-.96-1.104l-.192-.048zm23.92 8.304c2.72 4.224 4.896 7.968 6.528 11.232l-2.88.096c-1.28.064-2.288.096-3.024.096-1.44 0-2.496-.08-3.168-.24-.192-.32-.704-1.264-1.536-2.832l-.624-1.2c-.352-.608-.528-.944-.528-1.008l-1.152-2.256v1.296l.048 1.536c0 1.92-.112 3.44-.336 4.56-.384-.032-1.456-.048-3.216-.048a37.22 37.22 0 0 1-2.4.096c-.64 0-1.344-.064-2.112-.192-.128-3.328-.192-7.088-.192-11.28l.096-10.992.096-12.96c1.312 0 2.224-.016 2.736-.048h1.2l1.248-.048 1.632.096 1.152.048v11.808l-.048 1.152c-.032.512-.048 1.248-.048 2.208l-.048.576c.352-.384.608-.736.768-1.056l.384-.768a2.13 2.13 0 0 0 .192-.384 7.86 7.86 0 0 1 .288-.528v.048c.832-1.408 1.616-2.544 2.352-3.408.928.32 1.856.48 2.784.48.512 0 1.312-.032 2.4-.096h.24c.32-.032.896-.048 1.728-.048.672 0 1.2.016 1.584.048-.832 1.28-1.84 2.72-3.024 4.32l-2.112 2.832c-.032.032-.24.288-.624.768l-.624.816-1.728 2.256a18.41 18.41 0 0 0 .48.816 6.6 6.6 0 0 1 .48.624c.32.576.656 1.104 1.008 1.584z"/></g><defs><filter id="A" x=".885" y=".109" width="51.447" height="64.218" filterUnits="userSpaceOnUse" class="G"><feFlood flood-opacity="0" result="A"/><feColorMatrix in="SourceAlpha" values="0 0 0 0 0 0 0 0 0 0 0 0 0 0 0 0 0 0 127 0"/><feOffset dx="1" dy="-2"/><feColorMatrix values="0 0 0 0 0.0705882 0 0 0 0 0.0862745 0 0 0 0 0.160784 0 0 0 1 0"/><feBlend in2="A"/><feBlend in="SourceGraphic"/></filter><filter id="B" x="58.256" y="19.816" width="168.91" height="40.192" filterUnits="userSpaceOnUse" class="G"><feFlood flood-opacity="0" result="A"/><feColorMatrix in="SourceAlpha" values="0 0 0 0 0 0 0 0 0 0 0 0 0 0 0 0 0 0 127 0"/><feOffset dx="6" dy="4"/><feColorMatrix values="0 0 0 0 0.0705882 0 0 0 0 0.0862745 0 0 0 0 0.160784 0 0 0 1 0"/><feBlend in2="A"/><feBlend in="SourceGraphic"/></filter></defs></svg>