<svg width="228" height="67" viewBox="0 0 228 67" fill="none" xmlns="http://www.w3.org/2000/svg">
<g filter="url(#filter0_d)">
<path d="M17.8128 17.086C16.5823 17.9788 16.2307 19.0704 16.1333 20.5776C16.0205 22.3223 16.94 23.2143 17.8128 24.7342C18.6232 26.1454 18.8655 27.3336 20.3322 28.0595C21.7989 28.7855 24.5311 26.5631 24.5311 26.5631C24.5311 26.5631 27.3794 29.0924 29.2339 28.8908C30.3892 28.7653 31.1869 28.7848 32.0892 28.0595C33.6377 26.8146 33.3243 25.0072 32.929 23.0716C32.5856 21.3902 32.0196 20.4103 30.7455 19.2475C29.9019 18.4776 29.3603 17.9232 28.2262 17.7511C26.6851 17.5173 24.5311 19.2475 24.5311 19.2475C24.5311 19.2475 23.6333 17.6681 22.6836 17.086C21.0663 16.0949 19.3471 15.973 17.8128 17.086Z" fill="#FFFCE7" stroke="#121629" stroke-width="2"/>
<path d="M8.56643 26.13C7.50943 29.1265 9.95052 30.2014 11.9346 30.6761C13.8763 31.1408 16.3868 30.9765 20.8046 29.3561C25.2223 27.7357 21.4365 23.4933 19.3361 22.927C17.2357 22.3607 19.4472 20.369 17.1246 18.1901C14.802 16.0111 12.2279 17.2295 11.3422 19.3295C10.4565 21.4296 12.056 23.5519 12.056 23.5519C12.056 23.5519 9.62344 23.1335 8.56643 26.13Z" fill="white" stroke="#121629" stroke-width="2"/>
<path d="M38.9732 24.4665C38.0953 23.3034 37.3479 22.5921 37.2936 21.1412C37.2476 19.91 37.4024 19.0004 38.3014 18.1484C39.5814 16.9352 43.3401 18.481 43.3401 18.481C43.3401 18.481 45.1842 15.332 47.0351 15.6544C49.1854 16.0291 50.7509 17.8793 50.2263 19.9773C49.8362 21.5378 48.5467 22.4713 47.0351 23.1363C46.8181 23.2318 48.3346 26.4344 47.0351 27.6255C45.8319 28.7283 43.3401 27.7918 42.8362 27.6255C42.3323 27.4592 40.1445 26.0181 38.9732 24.4665Z" fill="#FFFCE7" stroke="#121629" stroke-width="2"/>
<path d="M45.2123 22.7217C45.9325 24.252 45.8369 26.1485 44.8764 27.5434C44.0171 28.7913 42.7941 28.721 41.3493 29.2061C38.9069 30.026 34.799 30.0374 34.799 30.0374C34.799 30.0374 28.8044 30.2002 28.2486 27.5434C27.8731 25.7484 30.9359 23.5531 30.9359 23.5531C30.9359 23.5531 29.1816 19.063 30.9359 17.235C32.5075 15.5976 34.783 14.7104 36.8144 15.7386C38.7906 16.7388 38.9979 20.8928 38.9979 20.8928C38.9979 20.8928 41.4012 20.6619 42.357 20.8928C44.0787 21.3087 44.4639 21.1315 45.2123 22.7217Z" fill="#FFFFFE" stroke="#121629" stroke-width="2"/>
<path d="M5.89927 13.428C3.26395 12.3813 1.76067 16.2819 2.01583 17.6519C2.27098 19.0218 3.13502 19.2324 3.13502 19.2324C3.13502 19.2324 1.98611 20.3817 1.90474 21.8002C1.82338 23.2187 1.91964 25.1523 4.06496 25.7889C7.35409 26.7649 9.11342 26.3888 9.43901 24.2673C9.76459 22.1458 11.6293 24.363 13.3138 22.0072C14.9984 19.6513 13.7661 17.0635 11.9083 16.1837C10.0505 15.3039 8.36005 16.9303 8.36005 16.9303C8.36005 16.9303 8.53459 14.4748 5.89927 13.428Z" fill="white" stroke="#121629" stroke-width="2"/>
<path d="M8.16171 17.995C8.16171 17.995 6.6691 20.5571 7.17698 21.796C7.87547 23.4998 9.60155 23.7644 11.4571 23.8499C13.4227 23.9404 16.1918 22.1355 16.1918 22.1355C16.1918 22.1355 19.0746 20.6317 18.9257 19.0696C18.785 17.5941 15.9543 16.6715 15.9543 16.6715C15.9543 16.6715 16.3211 14.3854 15.6303 13.2147C14.762 11.743 13.4392 11.0357 11.7246 11.1903C10.0288 11.3433 9.15131 12.383 8.27188 13.8265C7.33068 15.3714 8.16171 17.995 8.16171 17.995Z" fill="#FFFCE7" stroke="#121629" stroke-width="2"/>
<path d="M40.6202 17.2333C39.2488 17.7482 38.3521 18.2632 36.9282 17.915C35.7201 17.6195 34.8795 17.2213 34.2999 16.1311C33.4746 14.5786 36.0117 11.4281 36.0117 11.4281C36.0117 11.4281 33.4622 8.80528 34.2855 7.13285C35.242 5.18997 37.4702 4.21032 39.3628 5.28775C40.7706 6.08915 41.3216 7.57342 41.5508 9.19514C41.5837 9.428 45.1115 8.86767 45.9099 10.4325C46.6492 11.8815 45.0529 13.9945 44.7526 14.4281C44.4522 14.8618 42.4498 16.5464 40.6202 17.2333Z" fill="#FFFCE7" stroke="#121629" stroke-width="2"/>
<path d="M28.0696 4.44976C25.4343 3.40298 23.931 7.30368 24.1862 8.67358C24.4413 10.0435 25.3054 10.2541 25.3054 10.2541C25.3054 10.2541 24.1565 11.4034 24.0751 12.8219C23.9937 14.2404 24.09 16.174 26.2353 16.8106C29.5244 17.7867 31.2838 17.4106 31.6094 15.289C31.9349 13.1675 33.7997 15.3848 35.4842 13.0289C37.1687 10.673 35.9364 8.08519 34.0786 7.20543C32.2209 6.32566 30.5304 7.95203 30.5304 7.95203C30.5304 7.95203 30.7049 5.49653 28.0696 4.44976Z" fill="white" stroke="#121629" stroke-width="2"/>
<path d="M5.74259 24.4441C5.74259 24.4441 2.34963 25.8417 2.35138 26.97C2.35379 28.5217 3.61594 29.269 5.03609 29.9165C6.5405 30.6025 9.2751 30.0568 9.2751 30.0568C9.2751 30.0568 12.0025 29.7823 12.3837 28.5134C12.7437 27.3149 10.8294 25.7072 10.8294 25.7072C10.8294 25.7072 11.8433 24.0332 11.6772 22.901C11.4684 21.4777 10.6618 20.5103 9.2751 20.0948C7.90362 19.6837 6.88812 20.2227 5.74259 21.0769C4.5166 21.9912 5.74259 24.4441 5.74259 24.4441Z" fill="#FFFCE7" stroke="#121629" stroke-width="2"/>
<path d="M23.8593 11.1005C22.6287 11.9933 22.2772 13.0849 22.1797 14.5921C22.0669 16.3368 22.9865 17.2288 23.8593 18.7487C24.6697 20.1599 24.912 21.3481 26.3786 22.074C27.8453 22.8 30.5776 20.5776 30.5776 20.5776C30.5776 20.5776 33.4259 23.1069 35.2804 22.9053C36.4357 22.7798 37.2334 22.7993 38.1356 22.074C39.6842 20.8291 39.3707 19.0217 38.9754 17.0861C38.632 15.4047 38.066 14.4248 36.792 13.262C35.9484 12.4921 35.4067 11.9377 34.2726 11.7656C32.7315 11.5318 30.5776 13.262 30.5776 13.262C30.5776 13.262 29.6798 11.6825 28.73 11.1005C27.1127 10.1094 25.3935 9.98749 23.8593 11.1005Z" fill="#FFFCE7" stroke="#121629" stroke-width="2"/>
<path d="M11.9794 12.6077C11.5383 15.4265 15.7309 16.079 17.027 15.5367C18.3232 14.9943 18.3368 14.0983 18.3368 14.0983C18.3368 14.0983 19.7311 14.9861 21.151 14.765C22.5709 14.5438 24.4598 14.0383 24.606 11.7894C24.83 8.34153 24.0624 6.68806 21.8929 6.81792C19.7233 6.94777 21.4944 4.6396 18.7875 3.48036C16.0805 2.32111 13.8009 4.08489 13.3497 6.10211C12.8986 8.11933 14.8861 9.43938 14.8861 9.43938C14.8861 9.43938 12.4206 9.78898 11.9794 12.6077Z" fill="white" stroke="#121629" stroke-width="2"/>
<path d="M48.5272 13.8053C49.2634 14.8242 49.467 16.2232 48.9781 17.3752C48.5408 18.4057 47.6534 18.5231 46.6867 19.077C45.0524 20.0133 42.1073 20.5886 42.1073 20.5886C42.1073 20.5886 37.8307 21.535 37.0508 19.6702C36.5239 18.4104 38.4059 16.3833 38.4059 16.3833C38.4059 16.3833 36.5031 13.3443 37.4993 11.7663C38.3916 10.3528 39.8966 9.39042 41.5013 9.86141C43.0623 10.3196 43.8071 13.3265 43.8071 13.3265C43.8071 13.3265 45.4979 12.8261 46.2166 12.8629C47.5113 12.9292 47.7622 12.7465 48.5272 13.8053Z" fill="#FFFFFE" stroke="#121629" stroke-width="2"/>
<ellipse cx="18.1393" cy="8.64819" rx="2.01548" ry="1.99518" fill="#EAD4AC"/>
<path d="M15.3767 16.8216C14.2462 19.2378 16.6017 20.0163 18.5289 20.3318C20.415 20.6405 22.8781 20.4313 27.2548 19.0043C31.6316 17.5772 28.0608 14.3216 26.0226 13.937C23.9844 13.5523 26.213 11.8991 24.0088 10.2388C21.8046 8.57859 19.2456 9.62817 18.3114 11.3261C17.3772 13.024 18.8753 14.6619 18.8753 14.6619C18.8753 14.6619 16.5073 14.4053 15.3767 16.8216Z" fill="white" stroke="#121629" stroke-width="2"/>
<path d="M27.4469 29.8692C25.9819 29.8 24.9521 29.9184 23.7866 29.037C22.7977 28.2891 22.1871 27.5922 22.0948 26.3636C21.9633 24.6141 25.559 22.7263 25.559 22.7263C25.559 22.7263 24.2774 19.3147 25.7062 18.1059C27.3659 16.7018 29.8039 16.6829 31.1056 18.4181C32.0738 19.7087 31.9813 21.2874 31.5381 22.865C31.4745 23.0916 34.9355 23.9703 35.0373 25.7205C35.1317 27.341 32.8166 28.6487 32.3665 28.9278C31.9164 29.2069 29.4015 29.9615 27.4469 29.8692Z" fill="#FFFCE7" stroke="#121629" stroke-width="2"/>
<path d="M18.9492 26.7883C18.9492 26.7883 22.7355 28.9265 24.088 28.0547C25.948 26.8557 26.0596 25.0831 25.9533 23.2377C25.8408 21.2828 23.4858 19.1116 23.4858 19.1116C23.4858 19.1116 21.4607 16.7382 19.7014 17.3555C18.0398 17.9385 17.3015 20.9928 17.3015 20.9928C17.3015 20.9928 14.6629 21.3228 13.408 22.3534C11.8304 23.6489 11.1715 25.1595 11.5352 26.7943C11.8949 28.4112 13.1729 28.9581 14.9099 29.3851C16.769 29.842 18.9492 26.7883 18.9492 26.7883Z" fill="#FFFFFE" stroke="#121629" stroke-width="2"/>
<ellipse cx="33.5914" cy="15.2988" rx="2.01548" ry="1.99518" fill="#EAD4AC"/>
<ellipse cx="20.1548" cy="23.2795" rx="1.67957" ry="1.66265" fill="#EAD4AC"/>
<ellipse cx="7.72594" cy="25.2746" rx="1.00774" ry="0.997588" fill="#EAD4AC"/>
<path d="M3.02319 28.9232L15.1161 26.9411C15.1161 26.9411 20.3085 26.4186 27.9842 26.4186C33.4473 26.4186 41.6533 28.3918 41.6533 28.3918L43.8487 26.2296C45.8627 24.2462 49.2514 25.8941 48.9349 28.703L46.4932 50.3748L42.2476 57.9125L38.9235 63.3276H7.91869L3.02319 28.9232Z" fill="#C33C54"/>
<path fill-rule="evenodd" clip-rule="evenodd" d="M7.81203 63.0201L3.05556 29.0725C3.03603 28.9331 3.13381 28.8932 3.31869 28.8415C4.00082 28.6506 3.69502 28.7496 9.40556 27.8327C10.1855 41.7301 11.7377 63.3275 11.7377 63.3275H8.29383C8.04486 63.3275 7.83647 63.1945 7.81203 63.0201ZM18.6432 63.3275C18.6432 63.3275 17.6515 40.7303 17.1316 26.6578C23.5139 25.6796 26.0333 26.168 26.0333 26.168C25.9677 40.5753 26.2012 63.3275 26.2012 63.3275H18.6432ZM32.5962 63.3275H38.8095L41.9804 28.8415C41.9804 28.8415 39.6378 28.1122 34.7671 27.4135L32.5962 63.3275ZM44.8405 53.7414L41.9025 58.3853L44.3209 26.168L47.1402 23.407L44.8405 53.7414Z" fill="#FFFFFE"/>
<path d="M8.29383 63.3275H11.7377M8.29383 63.3275C8.04486 63.3275 7.83647 63.1945 7.81203 63.0201M8.29383 63.3275L7.81203 63.0201M38.8095 63.3275L41.9804 28.8415M38.8095 63.3275H32.5962M38.8095 63.3275L41.9025 58.3853M41.9804 28.8415C41.9804 28.8415 39.6378 28.1122 34.7671 27.4135M41.9804 28.8415L44.3209 26.168M26.0333 26.168C26.0333 26.168 23.5139 25.6796 17.1316 26.6578M26.0333 26.168C25.9677 40.5753 26.2012 63.3275 26.2012 63.3275M26.0333 26.168C30.9474 26.6091 29.8963 26.7148 34.7671 27.4135M47.1402 23.407L44.3209 26.168M47.1402 23.407L44.8405 53.7414M47.1402 23.407L48.4144 22.2675M9.40556 27.8327C10.1855 41.7301 11.7377 63.3275 11.7377 63.3275M9.40556 27.8327C15.1161 26.9159 10.7492 27.636 17.1316 26.6578M9.40556 27.8327C3.69502 28.7496 4.00082 28.6506 3.31869 28.8415M11.7377 63.3275H18.6432M18.6432 63.3275C18.6432 63.3275 17.6515 40.7303 17.1316 26.6578M18.6432 63.3275H26.2012M26.2012 63.3275H32.5962M32.5962 63.3275L34.7671 27.4135M44.3209 26.168L41.9025 58.3853M41.9025 58.3853L44.8405 53.7414M44.8405 53.7414L46.628 50.8358M7.81203 63.0201L3.05556 29.0725M3.05556 29.0725C3.03603 28.9331 3.13381 28.8932 3.31869 28.8415M3.05556 29.0725V29.0725C3.04618 29.0055 3.13951 28.9633 3.20248 28.988C3.26448 29.0124 3.31872 28.991 3.31869 28.8415M48.4144 22.2675C48.7086 22.0044 49.3088 22.1664 49.2779 22.5005M48.4144 22.2675L48.5589 22.1382C48.8519 21.8762 49.3141 22.1091 49.2779 22.5005V22.5005M49.2779 22.5005L46.6668 50.7225M46.6668 50.7225C46.6632 50.7616 46.6501 50.7999 46.628 50.8358M46.6668 50.7225V50.7225C46.6632 50.7613 46.6507 50.7988 46.6303 50.832L46.628 50.8358" stroke="#121629" stroke-width="2"/>
<path d="M6.71826 57.0442H39.3019V63.0134H7.55805L6.71826 57.0442Z" fill="#5C3B41" fill-opacity="0.35" style="mix-blend-mode:hard-light"/>
<path d="M38.9661 57.204L47.5319 43.0638L46.86 51.075L38.9661 63.0134V57.204Z" fill="#5C3B41" fill-opacity="0.35" style="mix-blend-mode:hard-light"/>
</g>
<g filter="url(#filter1_d)">
<path d="M74.0478 42.712C73.6318 42.776 72.5918 42.888 70.9278 43.048C70.6078 43.08 70.2238 43.112 69.7758 43.144C69.3278 43.144 68.8798 43.192 68.4318 43.288L68.0958 53.464V55.144C66.7518 55.304 64.7998 55.384 62.2398 55.384C60.0318 55.384 58.7038 55.224 58.2558 54.904L58.3038 47.08V40.792C58.3358 37.432 58.3518 31.24 58.3518 22.216C59.7278 21.992 61.7118 21.784 64.3038 21.592C66.9278 21.4 69.4398 21.304 71.8398 21.304C75.7758 21.304 78.9118 21.592 81.2478 22.168V23.08C81.2478 23.208 81.2478 23.48 81.2478 23.896C81.2798 24.28 81.3118 25.16 81.3438 26.536C81.3438 27.656 81.3118 28.664 81.2478 29.56L77.7438 29.752L75.9678 29.848L75.1038 29.896L72.5118 30.04C70.6878 30.104 69.3118 30.184 68.3838 30.28L68.2398 30.616C68.1438 30.904 68.0958 31.32 68.0958 31.864C68.0958 32.376 68.1278 32.888 68.1918 33.4C68.2558 33.88 68.3198 34.168 68.3838 34.264C69.1838 34.36 69.9518 34.408 70.6878 34.408C72.1598 34.408 73.4558 34.328 74.5758 34.168C74.7358 34.52 74.8158 35.192 74.8158 36.184V37.144L74.7678 38.296L74.7198 39.208V40.12C74.7198 40.792 74.7518 41.544 74.8158 42.376C74.8158 42.536 74.5598 42.648 74.0478 42.712ZM89.6546 20.296C89.6546 21.16 89.6706 21.88 89.7026 22.456C89.7026 22.776 89.7346 23.352 89.7986 24.184L89.8946 27.256C89.7346 27.448 89.4786 27.544 89.1266 27.544C88.9026 27.544 88.5986 27.528 88.2146 27.496C87.8306 27.432 87.5106 27.4 87.2546 27.4C86.8706 27.4 86.2626 27.368 85.4306 27.304C85.1106 27.272 84.5666 27.256 83.7986 27.256C82.9666 27.256 82.3266 27.272 81.8786 27.304C81.8786 26.632 81.8466 25.752 81.7826 24.664L81.7346 23.896C81.6706 22.488 81.6546 21.24 81.6866 20.152L89.6546 20.296ZM89.8466 30.856C89.8466 32.52 89.8146 34.952 89.7506 38.152L89.7026 40.84C89.6386 43.784 89.6066 45.992 89.6066 47.464C89.6066 50.216 89.6706 52.632 89.7986 54.712C89.6386 54.936 89.3026 55.08 88.7906 55.144C88.3106 55.24 87.6386 55.288 86.7746 55.288C85.7826 55.288 85.0946 55.272 84.7106 55.24C83.4626 55.176 82.4066 55.272 81.5426 55.528C81.7026 53.384 81.7826 51.224 81.7826 49.048C81.7826 47.704 81.7506 45.72 81.6866 43.096C81.6226 40.92 81.5906 39.032 81.5906 37.432C81.5906 35.064 81.6866 32.776 81.8786 30.568C82.3266 30.504 82.7106 30.472 83.0306 30.472C83.3186 30.472 83.5426 30.488 83.7026 30.52C85.6866 30.616 87.2386 30.648 88.3586 30.616L89.8466 30.856ZM99.6881 28.552V29.944L99.6401 34.648C99.5761 39.32 99.5441 42.808 99.5441 45.112C99.5441 49.432 99.6081 52.632 99.7361 54.712C99.5761 54.936 99.2401 55.08 98.7281 55.144C98.2481 55.24 97.5761 55.288 96.7121 55.288C95.7201 55.288 95.0321 55.272 94.6481 55.24C93.4001 55.176 92.3441 55.272 91.4801 55.528C91.7041 52.456 91.8161 49.608 91.8161 46.984C91.8161 45.064 91.7521 42.184 91.6241 38.344C91.4961 34.184 91.4321 31.048 91.4321 28.936C91.4321 25.736 91.5761 22.712 91.8641 19.864L99.7841 20.008L99.6881 28.552ZM109.339 32.728C109.371 32.728 109.371 32.728 109.339 32.728C109.339 32.696 109.355 32.68 109.387 32.68C110.155 32.168 111.035 31.768 112.027 31.48C113.051 31.16 114.059 31 115.051 31C117.163 31 118.795 31.512 119.947 32.536C119.947 32.568 120.043 32.68 120.235 32.872C120.267 32.872 120.267 32.888 120.235 32.92C120.203 32.92 120.203 32.936 120.235 32.968L120.667 32.68C121.435 32.168 122.315 31.768 123.307 31.48C124.299 31.16 125.307 31 126.331 31C128.443 31 130.075 31.512 131.227 32.536C132.123 33.336 132.571 35.976 132.571 40.456C132.571 41.768 132.539 43.768 132.475 46.456C132.411 48.76 132.379 50.408 132.379 51.4C132.379 52.488 132.411 53.704 132.475 55.048C130.715 55.304 128.987 55.4 127.291 55.336H125.035C124.971 54.376 124.939 52.52 124.939 49.768V47.368C124.939 45.576 124.891 44.232 124.795 43.336C124.635 41.672 124.411 40.552 124.123 39.976C123.835 39.4 123.339 39.112 122.635 39.112C122.315 39.112 122.043 39.24 121.819 39.496C121.595 39.72 121.419 40.2 121.291 40.936C121.291 42.28 121.259 44.36 121.195 47.176C121.131 49.288 121.099 50.808 121.099 51.736C121.099 52.728 121.131 53.832 121.195 55.048C119.435 55.304 117.707 55.4 116.011 55.336H113.755C113.691 54.376 113.659 52.52 113.659 49.768V47.368C113.659 45.8 113.627 44.664 113.563 43.96C113.563 43.928 113.547 43.88 113.515 43.816C113.515 43.72 113.515 43.56 113.515 43.336C113.451 42.28 113.339 41.416 113.179 40.744C113.051 40.072 112.795 39.608 112.411 39.352C112.155 39.192 111.787 39.112 111.307 39.112C110.731 39.112 110.219 39.32 109.771 39.736C109.323 40.152 109.083 40.84 109.051 41.8C109.019 42.28 109.003 43.016 109.003 44.008C109.003 44.808 109.035 45.976 109.099 47.512C109.163 49.112 109.195 50.312 109.195 51.112C109.195 52.552 109.131 53.832 109.003 54.952C108.139 55.176 107.435 55.304 106.891 55.336C106.379 55.4 105.803 55.416 105.163 55.384C104.875 55.352 104.411 55.336 103.771 55.336C103.035 55.336 102.315 55.368 101.611 55.432C101.611 51.592 101.595 48.744 101.563 46.888C101.499 42.728 101.467 39.576 101.467 37.432C101.467 35.864 101.499 33.64 101.563 30.76C102.587 30.888 103.387 30.952 103.963 30.952C104.507 30.952 105.035 30.92 105.547 30.856L106.363 30.76C107.067 30.696 107.611 30.664 107.995 30.664C108.763 30.664 109.179 30.776 109.243 31C109.307 31.384 109.339 31.944 109.339 32.68V32.728ZM148.679 37.576C150.055 37.576 151.607 37.64 153.335 37.768L154.871 37.864L155.687 37.912L155.783 38.92C155.815 39.272 155.879 40.04 155.975 41.224C156.071 42.376 156.119 43.368 156.119 44.2C156.119 45.832 155.991 47.448 155.735 49.048C155.511 50.488 154.951 51.704 154.055 52.696C153.159 53.688 152.023 54.44 150.647 54.952C148.311 55.656 146.151 56.008 144.167 56.008C142.631 56.008 141.239 55.768 139.991 55.288C137.463 54.168 135.815 52.216 135.047 49.432C134.823 48.568 134.631 47.448 134.471 46.072C134.471 46.424 134.295 43.56 133.943 37.48C133.943 36.456 133.959 35.64 133.991 35.032C134.055 32.152 134.215 30.04 134.471 28.696C134.919 26.136 135.959 24.248 137.591 23.032C138.807 22.136 140.471 21.528 142.583 21.208C143.319 21.112 144.071 21.064 144.839 21.064C148.039 21.064 150.663 21.88 152.711 23.512C154.759 25.112 155.783 27.4 155.783 30.376L155.687 31.912V32.584C155.463 32.616 155.191 32.632 154.871 32.632C154.551 32.632 154.263 32.632 154.007 32.632H151.703C150.487 32.632 149.319 32.568 148.199 32.44C147.431 29.816 146.567 28.504 145.607 28.504C145.447 28.504 145.271 28.488 145.079 28.456C144.887 28.424 144.711 28.408 144.551 28.408C144.039 28.408 143.591 28.6 143.207 28.984C143.175 29.016 143.063 29.4 142.871 30.136C142.263 32.152 141.959 35.128 141.959 39.064C141.959 41.016 142.023 42.632 142.151 43.912C142.375 46.056 142.807 47.416 143.447 47.992C143.767 48.184 144.023 48.312 144.215 48.376C144.567 48.408 144.983 48.392 145.463 48.328C145.975 48.232 146.423 48.104 146.807 47.944C147.351 47.72 147.703 47.208 147.863 46.408C147.959 46.024 148.055 45.528 148.151 44.92C148.247 44.312 148.279 43.944 148.247 43.816H147.095C145.911 43.88 144.999 43.784 144.359 43.528C144.295 42.856 144.263 42.024 144.263 41.032V40.504C144.263 40.376 144.263 40.168 144.263 39.88C144.295 39.56 144.263 38.968 144.167 38.104C144.423 38.104 144.967 38.04 145.799 37.912C147.079 37.688 148.039 37.576 148.679 37.576ZM164.685 44.344C164.717 45.4 164.765 46.184 164.829 46.696C164.925 47.176 165.149 47.688 165.501 48.232C165.757 48.712 166.093 49.08 166.509 49.336C166.925 49.592 167.357 49.72 167.805 49.72C168.477 49.72 169.021 49.368 169.437 48.664C169.853 47.928 170.029 46.856 169.965 45.448C170.893 45.576 171.885 45.608 172.941 45.544L177.453 45.784C177.453 47.224 177.341 48.68 177.117 50.152C176.925 51.624 176.541 52.744 175.965 53.512C175.325 54.408 174.397 55.016 173.181 55.336C171.997 55.688 170.605 55.864 169.005 55.864C168.397 55.864 167.549 55.832 166.461 55.768C165.949 55.736 165.197 55.72 164.205 55.72C163.213 55.592 162.221 55.24 161.229 54.664C159.693 53.448 158.557 51.72 157.821 49.48C157.085 47.24 156.717 44.808 156.717 42.184C156.717 39.432 157.101 36.904 157.869 34.6C158.509 33.16 159.693 32.04 161.421 31.24C163.149 30.44 165.069 30.04 167.181 30.04C168.333 30.04 169.453 30.168 170.541 30.424C173.005 30.904 174.797 32.072 175.917 33.928C177.069 35.752 177.645 37.944 177.645 40.504C177.645 40.92 177.613 41.64 177.549 42.664C176.941 42.824 175.549 42.984 173.373 43.144C171.197 43.272 169.165 43.336 167.277 43.336H164.685V44.344ZM169.389 35.704C168.909 35.416 168.477 35.272 168.093 35.272C166.973 35.272 166.173 35.528 165.693 36.04C165.213 36.552 164.925 37.272 164.829 38.2C164.797 38.328 164.781 38.472 164.781 38.632C164.781 38.824 164.877 38.936 165.069 38.968C165.261 39 165.741 39 166.509 38.968H168.621L170.061 39.016H170.685C170.781 39.048 170.845 39.048 170.877 39.016C170.909 38.984 170.925 38.92 170.925 38.824V38.632C170.925 37.96 170.797 37.368 170.541 36.856C170.317 36.344 169.997 35.976 169.581 35.752L169.389 35.704ZM186.013 44.344C186.045 45.4 186.093 46.184 186.157 46.696C186.253 47.176 186.477 47.688 186.829 48.232C187.085 48.712 187.421 49.08 187.837 49.336C188.253 49.592 188.685 49.72 189.133 49.72C189.805 49.72 190.349 49.368 190.765 48.664C191.181 47.928 191.357 46.856 191.293 45.448C192.221 45.576 193.213 45.608 194.269 45.544L198.781 45.784C198.781 47.224 198.669 48.68 198.445 50.152C198.253 51.624 197.869 52.744 197.293 53.512C196.653 54.408 195.725 55.016 194.509 55.336C193.325 55.688 191.933 55.864 190.333 55.864C189.725 55.864 188.877 55.832 187.789 55.768C187.277 55.736 186.525 55.72 185.533 55.72C184.541 55.592 183.549 55.24 182.557 54.664C181.021 53.448 179.885 51.72 179.149 49.48C178.413 47.24 178.045 44.808 178.045 42.184C178.045 39.432 178.429 36.904 179.197 34.6C179.837 33.16 181.021 32.04 182.749 31.24C184.477 30.44 186.397 30.04 188.509 30.04C189.661 30.04 190.781 30.168 191.869 30.424C194.333 30.904 196.125 32.072 197.245 33.928C198.397 35.752 198.973 37.944 198.973 40.504C198.973 40.92 198.941 41.64 198.877 42.664C198.269 42.824 196.877 42.984 194.701 43.144C192.525 43.272 190.493 43.336 188.605 43.336H186.013V44.344ZM190.717 35.704C190.237 35.416 189.805 35.272 189.421 35.272C188.301 35.272 187.501 35.528 187.021 36.04C186.541 36.552 186.253 37.272 186.157 38.2C186.125 38.328 186.109 38.472 186.109 38.632C186.109 38.824 186.205 38.936 186.397 38.968C186.589 39 187.069 39 187.837 38.968H189.949L191.389 39.016H192.013C192.109 39.048 192.173 39.048 192.205 39.016C192.237 38.984 192.253 38.92 192.253 38.824V38.632C192.253 37.96 192.125 37.368 191.869 36.856C191.645 36.344 191.325 35.976 190.909 35.752L190.717 35.704ZM214.637 44.008C217.357 48.232 219.533 51.976 221.165 55.24L218.285 55.336C217.005 55.4 215.997 55.432 215.261 55.432C213.821 55.432 212.765 55.352 212.093 55.192C211.901 54.872 211.389 53.928 210.557 52.36L209.933 51.16C209.581 50.552 209.405 50.216 209.405 50.152L208.253 47.896V49.192L208.301 50.728C208.301 52.648 208.189 54.168 207.965 55.288C207.581 55.256 206.509 55.24 204.749 55.24C203.789 55.304 202.989 55.336 202.349 55.336C201.709 55.336 201.005 55.272 200.237 55.144C200.109 51.816 200.045 48.056 200.045 43.864C200.045 41.4 200.077 37.736 200.141 32.872C200.205 27.944 200.237 23.624 200.237 19.912C201.549 19.912 202.461 19.896 202.973 19.864H204.173L205.421 19.816L207.053 19.912L208.205 19.96V31.768L208.157 32.92C208.125 33.432 208.109 34.168 208.109 35.128L208.061 35.704C208.413 35.32 208.669 34.968 208.829 34.648C208.989 34.328 209.117 34.072 209.213 33.88C209.277 33.784 209.341 33.656 209.405 33.496C209.501 33.304 209.597 33.128 209.693 32.968V33.016C210.525 31.608 211.309 30.472 212.045 29.608C212.973 29.928 213.901 30.088 214.829 30.088C215.341 30.088 216.141 30.056 217.229 29.992H217.469C217.789 29.96 218.365 29.944 219.197 29.944C219.869 29.944 220.397 29.96 220.781 29.992C219.949 31.272 218.941 32.712 217.757 34.312C216.605 35.88 215.901 36.824 215.645 37.144C215.613 37.176 215.405 37.432 215.021 37.912L214.397 38.728L212.669 40.984C212.829 41.272 212.989 41.544 213.149 41.8C213.341 42.024 213.501 42.232 213.629 42.424C213.949 43 214.285 43.528 214.637 44.008Z" fill="#FFFFFE"/>
</g>
<defs>
<filter id="filter0_d" x="0.885071" y="0.109314" width="51.4469" height="64.2182" filterUnits="userSpaceOnUse" color-interpolation-filters="sRGB">
<feFlood flood-opacity="0" result="BackgroundImageFix"/>
<feColorMatrix in="SourceAlpha" type="matrix" values="0 0 0 0 0 0 0 0 0 0 0 0 0 0 0 0 0 0 127 0"/>
<feOffset dx="1" dy="-2"/>
<feColorMatrix type="matrix" values="0 0 0 0 0.0705882 0 0 0 0 0.0862745 0 0 0 0 0.160784 0 0 0 1 0"/>
<feBlend mode="normal" in2="BackgroundImageFix" result="effect1_dropShadow"/>
<feBlend mode="normal" in="SourceGraphic" in2="effect1_dropShadow" result="shape"/>
</filter>
<filter id="filter1_d" x="58.2558" y="19.816" width="168.909" height="40.192" filterUnits="userSpaceOnUse" color-interpolation-filters="sRGB">
<feFlood flood-opacity="0" result="BackgroundImageFix"/>
<feColorMatrix in="SourceAlpha" type="matrix" values="0 0 0 0 0 0 0 0 0 0 0 0 0 0 0 0 0 0 127 0"/>
<feOffset dx="6" dy="4"/>
<feColorMatrix type="matrix" values="0 0 0 0 0.0705882 0 0 0 0 0.0862745 0 0 0 0 0.160784 0 0 0 1 0"/>
<feBlend mode="normal" in2="BackgroundImageFix" result="effect1_dropShadow"/>
<feBlend mode="normal" in="SourceGraphic" in2="effect1_dropShadow" result="shape"/>
</filter>
</defs>
</svg>
