<svg width="47" height="47" viewBox="0 0 47 47" fill="none" xmlns="http://www.w3.org/2000/svg">
<path d="M7.83341 43.0834H31.3334V39.1667H7.83341V15.6667H3.91675V39.1667C3.91675 41.3267 5.67337 43.0834 7.83341 43.0834Z" fill="#232946"/>
<path d="M39.1667 3.91669H15.6667C13.5066 3.91669 11.75 5.67331 11.75 7.83335V31.3334C11.75 33.4934 13.5066 35.25 15.6667 35.25H39.1667C41.3267 35.25 43.0833 33.4934 43.0833 31.3334V7.83335C43.0833 5.67331 41.3267 3.91669 39.1667 3.91669ZM35.25 21.5417H29.375V27.4167H25.4583V21.5417H19.5833V17.625H25.4583V11.75H29.375V17.625H35.25V21.5417Z" fill="#232946"/>
</svg>
