<svg width="52" height="64" viewBox="0 0 52 64" fill="none" xmlns="http://www.w3.org/2000/svg">
<path d="M17.8128 16.086C16.5823 16.9788 16.2307 18.0704 16.1333 19.5776C16.0205 21.3223 16.94 22.2143 17.8128 23.7342C18.6232 25.1454 18.8655 26.3336 20.3322 27.0595C21.7989 27.7855 24.5311 25.5631 24.5311 25.5631C24.5311 25.5631 27.3794 28.0924 29.2339 27.8908C30.3892 27.7653 31.1869 27.7848 32.0892 27.0595C33.6377 25.8146 33.3243 24.0072 32.929 22.0716C32.5856 20.3902 32.0196 19.4103 30.7455 18.2475C29.9019 17.4776 29.3603 16.9232 28.2262 16.7511C26.6851 16.5173 24.5311 18.2475 24.5311 18.2475C24.5311 18.2475 23.6333 16.6681 22.6836 16.086C21.0663 15.0949 19.3471 14.973 17.8128 16.086Z" fill="#FFFCE7" stroke="#121629" stroke-width="2"/>
<path d="M8.56643 25.13C7.50943 28.1265 9.95052 29.2014 11.9346 29.6761C13.8763 30.1408 16.3868 29.9765 20.8046 28.3561C25.2223 26.7357 21.4365 22.4933 19.3361 21.927C17.2357 21.3607 19.4472 19.369 17.1246 17.1901C14.802 15.0111 12.2279 16.2295 11.3422 18.3295C10.4565 20.4296 12.056 22.5519 12.056 22.5519C12.056 22.5519 9.62344 22.1335 8.56643 25.13Z" fill="white" stroke="#121629" stroke-width="2"/>
<path d="M38.9732 23.4665C38.0953 22.3034 37.3479 21.5921 37.2936 20.1412C37.2476 18.9101 37.4024 18.0004 38.3014 17.1484C39.5814 15.9352 43.3401 17.481 43.3401 17.481C43.3401 17.481 45.1842 14.332 47.0351 14.6545C49.1854 15.0291 50.7509 16.8794 50.2263 18.9774C49.8362 20.5379 48.5467 21.4713 47.0351 22.1364C46.8181 22.2319 48.3346 25.4344 47.0351 26.6255C45.8319 27.7284 43.3401 26.7918 42.8362 26.6255C42.3323 26.4592 40.1445 25.0182 38.9732 23.4665Z" fill="#FFFCE7" stroke="#121629" stroke-width="2"/>
<path d="M45.2123 21.7217C45.9325 23.252 45.8369 25.1484 44.8764 26.5434C44.0171 27.7913 42.7941 27.721 41.3493 28.206C38.9069 29.0259 34.799 29.0373 34.799 29.0373C34.799 29.0373 28.8044 29.2001 28.2486 26.5434C27.8731 24.7484 30.9359 22.553 30.9359 22.553C30.9359 22.553 29.1816 18.0629 30.9359 16.235C32.5075 14.5975 34.783 13.7104 36.8144 14.7386C38.7906 15.7388 38.9979 19.8928 38.9979 19.8928C38.9979 19.8928 41.4012 19.6619 42.357 19.8928C44.0787 20.3087 44.4639 20.1315 45.2123 21.7217Z" fill="#FFFFFE" stroke="#121629" stroke-width="2"/>
<path d="M5.89927 12.428C3.26395 11.3813 1.76067 15.2819 2.01583 16.6519C2.27098 18.0218 3.13502 18.2324 3.13502 18.2324C3.13502 18.2324 1.98611 19.3817 1.90474 20.8002C1.82338 22.2187 1.91964 24.1523 4.06496 24.7889C7.35409 25.7649 9.11342 25.3888 9.43901 23.2673C9.76459 21.1458 11.6293 23.363 13.3138 21.0072C14.9984 18.6513 13.7661 16.0635 11.9083 15.1837C10.0505 14.3039 8.36005 15.9303 8.36005 15.9303C8.36005 15.9303 8.53459 13.4748 5.89927 12.428Z" fill="white" stroke="#121629" stroke-width="2"/>
<path d="M8.16171 16.995C8.16171 16.995 6.6691 19.5571 7.17698 20.796C7.87547 22.4998 9.60155 22.7645 11.4571 22.8499C13.4227 22.9405 16.1918 21.1356 16.1918 21.1356C16.1918 21.1356 19.0746 19.6318 18.9257 18.0696C18.785 16.5941 15.9543 15.6716 15.9543 15.6716C15.9543 15.6716 16.3211 13.3854 15.6303 12.2147C14.762 10.743 13.4392 10.0357 11.7246 10.1904C10.0288 10.3433 9.15131 11.3831 8.27188 12.8266C7.33068 14.3714 8.16171 16.995 8.16171 16.995Z" fill="#FFFCE7" stroke="#121629" stroke-width="2"/>
<path d="M40.6202 16.2333C39.2488 16.7482 38.3521 17.2632 36.9282 16.915C35.7201 16.6195 34.8795 16.2213 34.2999 15.1311C33.4746 13.5786 36.0117 10.4281 36.0117 10.4281C36.0117 10.4281 33.4622 7.80528 34.2855 6.13285C35.242 4.18997 37.4702 3.21032 39.3628 4.28775C40.7706 5.08915 41.3216 6.57342 41.5508 8.19514C41.5837 8.428 45.1115 7.86767 45.9099 9.43252C46.6492 10.8815 45.0529 12.9945 44.7526 13.4281C44.4522 13.8618 42.4498 15.5464 40.6202 16.2333Z" fill="#FFFCE7" stroke="#121629" stroke-width="2"/>
<path d="M28.0696 3.44976C25.4343 2.40298 23.931 6.30368 24.1862 7.67358C24.4413 9.04348 25.3054 9.25411 25.3054 9.25411C25.3054 9.25411 24.1565 10.4034 24.0751 11.8219C23.9937 13.2404 24.09 15.174 26.2353 15.8106C29.5244 16.7867 31.2838 16.4106 31.6094 14.289C31.9349 12.1675 33.7997 14.3848 35.4842 12.0289C37.1687 9.67301 35.9364 7.08519 34.0786 6.20543C32.2209 5.32566 30.5304 6.95203 30.5304 6.95203C30.5304 6.95203 30.7049 4.49653 28.0696 3.44976Z" fill="white" stroke="#121629" stroke-width="2"/>
<path d="M5.74259 23.444C5.74259 23.444 2.34963 24.8417 2.35138 25.9699C2.35379 27.5217 3.61594 28.2689 5.03609 28.9165C6.5405 29.6024 9.2751 29.0568 9.2751 29.0568C9.2751 29.0568 12.0025 28.7823 12.3837 27.5134C12.7437 26.3148 10.8294 24.7071 10.8294 24.7071C10.8294 24.7071 11.8433 23.0331 11.6772 21.9009C11.4684 20.4777 10.6618 19.5103 9.2751 19.0947C7.90362 18.6837 6.88812 19.2227 5.74259 20.0769C4.5166 20.9911 5.74259 23.444 5.74259 23.444Z" fill="#FFFCE7" stroke="#121629" stroke-width="2"/>
<path d="M23.8593 10.1006C22.6287 10.9933 22.2772 12.085 22.1797 13.5921C22.0669 15.3369 22.9865 16.2289 23.8593 17.7487C24.6697 19.1599 24.912 20.3481 26.3786 21.074C27.8453 21.8 30.5776 19.5777 30.5776 19.5777C30.5776 19.5777 33.4259 22.1069 35.2804 21.9054C36.4357 21.7798 37.2334 21.7994 38.1356 21.074C39.6842 19.8291 39.3707 18.0217 38.9754 16.0861C38.632 14.4047 38.066 13.4248 36.792 12.262C35.9484 11.4921 35.4067 10.9377 34.2726 10.7656C32.7315 10.5318 30.5776 12.262 30.5776 12.262C30.5776 12.262 29.6798 10.6826 28.73 10.1006C27.1127 9.10946 25.3935 8.98752 23.8593 10.1006Z" fill="#FFFCE7" stroke="#121629" stroke-width="2"/>
<path d="M11.9794 11.6078C11.5383 14.4265 15.7309 15.0791 17.027 14.5367C18.3232 13.9943 18.3368 13.0983 18.3368 13.0983C18.3368 13.0983 19.7311 13.9861 21.151 13.765C22.5709 13.5439 24.4598 13.0383 24.606 10.7894C24.83 7.34156 24.0624 5.68809 21.8929 5.81795C19.7233 5.9478 21.4944 3.63963 18.7875 2.48039C16.0805 1.32114 13.8009 3.08492 13.3497 5.10214C12.8986 7.11936 14.8861 8.43941 14.8861 8.43941C14.8861 8.43941 12.4206 8.78902 11.9794 11.6078Z" fill="white" stroke="#121629" stroke-width="2"/>
<path d="M48.5272 12.8053C49.2634 13.8242 49.467 15.2232 48.9781 16.3752C48.5408 17.4057 47.6534 17.5232 46.6867 18.077C45.0524 19.0133 42.1073 19.5887 42.1073 19.5887C42.1073 19.5887 37.8307 20.535 37.0508 18.6703C36.5239 17.4104 38.4059 15.3833 38.4059 15.3833C38.4059 15.3833 36.5031 12.3443 37.4993 10.7663C38.3916 9.35284 39.8966 8.39045 41.5013 8.86144C43.0623 9.31961 43.8071 12.3266 43.8071 12.3266C43.8071 12.3266 45.4979 11.8261 46.2166 11.8629C47.5113 11.9292 47.7622 11.7466 48.5272 12.8053Z" fill="#FFFFFE" stroke="#121629" stroke-width="2"/>
<ellipse cx="18.1393" cy="7.64819" rx="2.01548" ry="1.99518" fill="#EAD4AC"/>
<path d="M15.3767 15.8216C14.2462 18.2379 16.6017 19.0163 18.5289 19.3318C20.415 19.6406 22.8781 19.4313 27.2548 18.0043C31.6316 16.5773 28.0608 13.3217 26.0226 12.937C23.9844 12.5524 26.213 10.8991 24.0088 9.23887C21.8046 7.57862 19.2456 8.6282 18.3114 10.3261C17.3772 12.0241 18.8753 13.662 18.8753 13.662C18.8753 13.662 16.5073 13.4053 15.3767 15.8216Z" fill="white" stroke="#121629" stroke-width="2"/>
<path d="M27.4469 28.8692C25.9819 28.8 24.9521 28.9184 23.7866 28.037C22.7977 27.2891 22.1871 26.5922 22.0948 25.3636C21.9633 23.6141 25.559 21.7263 25.559 21.7263C25.559 21.7263 24.2774 18.3147 25.7062 17.1059C27.3659 15.7018 29.8039 15.6829 31.1056 17.4181C32.0738 18.7087 31.9813 20.2874 31.5381 21.865C31.4745 22.0916 34.9355 22.9703 35.0373 24.7205C35.1317 26.341 32.8166 27.6487 32.3665 27.9278C31.9164 28.2069 29.4015 28.9615 27.4469 28.8692Z" fill="#FFFCE7" stroke="#121629" stroke-width="2"/>
<path d="M18.9492 25.7884C18.9492 25.7884 22.7355 27.9265 24.088 27.0547C25.948 25.8557 26.0596 24.0832 25.9533 22.2377C25.8408 20.2828 23.4858 18.1117 23.4858 18.1117C23.4858 18.1117 21.4607 15.7382 19.7014 16.3555C18.0398 16.9385 17.3015 19.9928 17.3015 19.9928C17.3015 19.9928 14.6629 20.3228 13.408 21.3534C11.8304 22.6489 11.1715 24.1595 11.5352 25.7943C11.8949 27.4112 13.1729 27.9581 14.9099 28.3851C16.769 28.8421 18.9492 25.7884 18.9492 25.7884Z" fill="#FFFFFE" stroke="#121629" stroke-width="2"/>
<ellipse cx="33.5914" cy="14.2988" rx="2.01548" ry="1.99518" fill="#EAD4AC"/>
<ellipse cx="20.1548" cy="22.2795" rx="1.67957" ry="1.66265" fill="#EAD4AC"/>
<ellipse cx="7.72594" cy="24.2746" rx="1.00774" ry="0.997588" fill="#EAD4AC"/>
<path d="M3.02319 27.9232L15.1161 25.941C15.1161 25.941 20.3085 25.4186 27.9842 25.4186C33.4473 25.4186 41.6533 27.3918 41.6533 27.3918L43.8487 25.2296C45.8627 23.2462 49.2514 24.8941 48.9349 27.703L46.4932 49.3748L42.2476 56.9125L38.9235 62.3275H7.91869L3.02319 27.9232Z" fill="#C33C54"/>
<path fill-rule="evenodd" clip-rule="evenodd" d="M7.81203 62.0201L3.05556 28.0725C3.03603 27.9331 3.13381 27.8932 3.31869 27.8414C4.00082 27.6505 3.69502 27.7496 9.40556 26.8327C10.1855 40.73 11.7377 62.3274 11.7377 62.3274H8.29383C8.04486 62.3274 7.83647 62.1945 7.81203 62.0201ZM18.6432 62.3274C18.6432 62.3274 17.6515 39.7303 17.1316 25.6578C23.5139 24.6796 26.0333 25.168 26.0333 25.168C25.9677 39.5753 26.2012 62.3274 26.2012 62.3274H18.6432ZM32.5962 62.3274H38.8095L41.9804 27.8414C41.9804 27.8414 39.6378 27.1122 34.7671 26.4135L32.5962 62.3274ZM44.8405 52.7414L41.9025 57.3853L44.3209 25.168L47.1402 22.407L44.8405 52.7414Z" fill="#FFFFFE"/>
<path d="M8.29383 62.3274H11.7377M8.29383 62.3274C8.04486 62.3274 7.83647 62.1945 7.81203 62.0201M8.29383 62.3274L7.81203 62.0201M38.8095 62.3274L41.9804 27.8414M38.8095 62.3274H32.5962M38.8095 62.3274L41.9025 57.3853M41.9804 27.8414C41.9804 27.8414 39.6378 27.1122 34.7671 26.4135M41.9804 27.8414L44.3209 25.168M26.0333 25.168C26.0333 25.168 23.5139 24.6796 17.1316 25.6578M26.0333 25.168C25.9677 39.5753 26.2012 62.3274 26.2012 62.3274M26.0333 25.168C30.9474 25.6091 29.8963 25.7148 34.7671 26.4135M47.1402 22.407L44.3209 25.168M47.1402 22.407L44.8405 52.7414M47.1402 22.407L48.4144 21.2674M9.40556 26.8327C10.1855 40.73 11.7377 62.3274 11.7377 62.3274M9.40556 26.8327C15.1161 25.9158 10.7492 26.636 17.1316 25.6578M9.40556 26.8327C3.69502 27.7496 4.00082 27.6505 3.31869 27.8414M11.7377 62.3274H18.6432M18.6432 62.3274C18.6432 62.3274 17.6515 39.7303 17.1316 25.6578M18.6432 62.3274H26.2012M26.2012 62.3274H32.5962M32.5962 62.3274L34.7671 26.4135M44.3209 25.168L41.9025 57.3853M41.9025 57.3853L44.8405 52.7414M44.8405 52.7414L46.628 49.8358M7.81203 62.0201L3.05556 28.0725M3.05556 28.0725C3.03603 27.9331 3.13381 27.8932 3.31869 27.8414M3.05556 28.0725V28.0725C3.04618 28.0055 3.13951 27.9632 3.20248 27.988C3.26448 28.0124 3.31872 27.991 3.31869 27.8414M48.4144 21.2674C48.7086 21.0044 49.3088 21.1663 49.2779 21.5004M48.4144 21.2674L48.5589 21.1382C48.8519 20.8762 49.3141 21.1091 49.2779 21.5004V21.5004M49.2779 21.5004L46.6668 49.7225M46.6668 49.7225C46.6632 49.7615 46.6501 49.7999 46.628 49.8358M46.6668 49.7225V49.7225C46.6632 49.7613 46.6507 49.7988 46.6303 49.832L46.628 49.8358" stroke="#121629" stroke-width="2"/>
<path d="M6.71826 56.0442H39.3019V62.0134H7.55805L6.71826 56.0442Z" fill="#5C3B41" fill-opacity="0.35" style="mix-blend-mode:hard-light"/>
<path d="M38.9661 56.204L47.5319 42.0638L46.86 50.075L38.9661 62.0134V56.204Z" fill="#5C3B41" fill-opacity="0.35" style="mix-blend-mode:hard-light"/>
</svg>
