<svg width="230" height="38" viewBox="0 0 230 38" fill="none" xmlns="http://www.w3.org/2000/svg">
<path d="M13.0979 9.8541C13.6966 8.01148 16.3034 8.01148 16.9021 9.8541L17.9187 12.9828C18.1864 13.8068 18.9543 14.3647 19.8208 14.3647H23.1105C25.0479 14.3647 25.8535 16.844 24.2861 17.9828L21.6246 19.9164C20.9237 20.4257 20.6304 21.3284 20.8981 22.1525L21.9147 25.2812C22.5134 27.1238 20.4044 28.656 18.837 27.5172L16.1756 25.5836C15.4746 25.0743 14.5254 25.0743 13.8244 25.5836L11.163 27.5172C9.59559 28.656 7.48663 27.1238 8.08533 25.2812L9.1019 22.1525C9.36965 21.3284 9.07633 20.4257 8.37536 19.9164L5.71395 17.9828C4.14652 16.844 4.95207 14.3647 6.88952 14.3647H10.1792C11.0457 14.3647 11.8136 13.8068 12.0813 12.9828L13.0979 9.8541Z" fill="#FFA630"/>
<path d="M35.0979 9.8541C35.6966 8.01148 38.3034 8.01148 38.9021 9.8541L39.9187 12.9828C40.1864 13.8068 40.9543 14.3647 41.8208 14.3647H45.1105C47.0479 14.3647 47.8535 16.844 46.2861 17.9828L43.6246 19.9164C42.9237 20.4257 42.6304 21.3284 42.8981 22.1525L43.9147 25.2812C44.5134 27.1238 42.4044 28.656 40.837 27.5172L38.1756 25.5836C37.4746 25.0743 36.5254 25.0743 35.8244 25.5836L33.163 27.5172C31.5956 28.656 29.4866 27.1238 30.0853 25.2812L31.1019 22.1525C31.3697 21.3284 31.0763 20.4257 30.3754 19.9164L27.714 17.9828C26.1465 16.844 26.9521 14.3647 28.8895 14.3647H32.1792C33.0457 14.3647 33.8136 13.8068 34.0813 12.9828L35.0979 9.8541Z" fill="#FFA630"/>
<path d="M58.0979 9.8541C58.6966 8.01148 61.3034 8.01148 61.9021 9.8541L62.9187 12.9828C63.1864 13.8068 63.9543 14.3647 64.8208 14.3647H68.1105C70.0479 14.3647 70.8535 16.844 69.2861 17.9828L66.6246 19.9164C65.9237 20.4257 65.6304 21.3284 65.8981 22.1525L66.9147 25.2812C67.5134 27.1238 65.4044 28.656 63.837 27.5172L61.1756 25.5836C60.4746 25.0743 59.5254 25.0743 58.8244 25.5836L56.163 27.5172C54.5956 28.656 52.4866 27.1238 53.0853 25.2812L54.1019 22.1525C54.3697 21.3284 54.0763 20.4257 53.3754 19.9164L50.714 17.9828C49.1465 16.844 49.9521 14.3647 51.8895 14.3647H55.1792C56.0457 14.3647 56.8136 13.8068 57.0813 12.9828L58.0979 9.8541Z" fill="#FFA630"/>
<path d="M80.0979 9.8541C80.6966 8.01148 83.3034 8.01148 83.9021 9.8541L84.9187 12.9828C85.1864 13.8068 85.9543 14.3647 86.8208 14.3647H90.1105C92.0479 14.3647 92.8535 16.844 91.2861 17.9828L88.6246 19.9164C87.9237 20.4257 87.6304 21.3284 87.8981 22.1525L88.9147 25.2812C89.5134 27.1238 87.4044 28.656 85.837 27.5172L83.1756 25.5836C82.4746 25.0743 81.5254 25.0743 80.8244 25.5836L78.163 27.5172C76.5956 28.656 74.4866 27.1238 75.0853 25.2812L76.1019 22.1525C76.3697 21.3284 76.0763 20.4257 75.3754 19.9164L72.714 17.9828C71.1465 16.844 71.9521 14.3647 73.8895 14.3647H77.1792C78.0457 14.3647 78.8136 13.8068 79.0813 12.9828L80.0979 9.8541Z" fill="#FFA630"/>
<path d="M103.098 9.8541C103.697 8.01148 106.303 8.01148 106.902 9.8541L107.919 12.9828C108.186 13.8068 108.954 14.3647 109.821 14.3647H113.11C115.048 14.3647 115.853 16.844 114.286 17.9828L111.625 19.9164C110.924 20.4257 110.63 21.3284 110.898 22.1525L111.915 25.2812C112.513 27.1238 110.404 28.656 108.837 27.5172L106.176 25.5836C105.475 25.0743 104.525 25.0743 103.824 25.5836L101.163 27.5172C99.5956 28.656 97.4866 27.1238 98.0853 25.2812L99.1019 22.1525C99.3697 21.3284 99.0763 20.4257 98.3754 19.9164L95.714 17.9828C94.1465 16.844 94.9521 14.3647 96.8895 14.3647H100.179C101.046 14.3647 101.814 13.8068 102.081 12.9828L103.098 9.8541Z" fill="#FFA630"/>
<path d="M125.098 9.8541C125.697 8.01148 128.303 8.01148 128.902 9.8541L129.919 12.9828C130.186 13.8068 130.954 14.3647 131.821 14.3647H135.11C137.048 14.3647 137.853 16.844 136.286 17.9828L133.625 19.9164C132.924 20.4257 132.63 21.3284 132.898 22.1525L133.915 25.2812C134.513 27.1238 132.404 28.656 130.837 27.5172L128.176 25.5836C127.475 25.0743 126.525 25.0743 125.824 25.5836L123.163 27.5172C121.596 28.656 119.487 27.1238 120.085 25.2812L121.102 22.1525C121.37 21.3284 121.076 20.4257 120.375 19.9164L117.714 17.9828C116.147 16.844 116.952 14.3647 118.89 14.3647H122.179C123.046 14.3647 123.814 13.8068 124.081 12.9828L125.098 9.8541Z" fill="#FFA630"/>
<path d="M147.098 9.8541C147.697 8.01148 150.303 8.01148 150.902 9.8541L151.919 12.9828C152.186 13.8068 152.954 14.3647 153.821 14.3647H157.11C159.048 14.3647 159.853 16.844 158.286 17.9828L155.625 19.9164C154.924 20.4257 154.63 21.3284 154.898 22.1525L155.915 25.2812C156.513 27.1238 154.404 28.656 152.837 27.5172L150.176 25.5836C149.475 25.0743 148.525 25.0743 147.824 25.5836L145.163 27.5172C143.596 28.656 141.487 27.1238 142.085 25.2812L143.102 22.1525C143.37 21.3284 143.076 20.4257 142.375 19.9164L139.714 17.9828C138.147 16.844 138.952 14.3647 140.89 14.3647H144.179C145.046 14.3647 145.814 13.8068 146.081 12.9828L147.098 9.8541Z" fill="#FFA630"/>
<path d="M169.098 9.8541C169.697 8.01148 172.303 8.01148 172.902 9.8541L173.919 12.9828C174.186 13.8068 174.954 14.3647 175.821 14.3647H179.11C181.048 14.3647 181.853 16.844 180.286 17.9828L177.625 19.9164C176.924 20.4257 176.63 21.3284 176.898 22.1525L177.915 25.2812C178.513 27.1238 176.404 28.656 174.837 27.5172L172.176 25.5836C171.475 25.0743 170.525 25.0743 169.824 25.5836L167.163 27.5172C165.596 28.656 163.487 27.1238 164.085 25.2812L165.102 22.1525C165.37 21.3284 165.076 20.4257 164.375 19.9164L161.714 17.9828C160.147 16.844 160.952 14.3647 162.89 14.3647H166.179C167.046 14.3647 167.814 13.8068 168.081 12.9828L169.098 9.8541Z" fill="#FFA630"/>
<path d="M191.098 9.8541C191.697 8.01148 194.303 8.01148 194.902 9.8541L195.919 12.9828C196.186 13.8068 196.954 14.3647 197.821 14.3647H201.11C203.048 14.3647 203.853 16.844 202.286 17.9828L199.625 19.9164C198.924 20.4257 198.63 21.3284 198.898 22.1525L199.915 25.2812C200.513 27.1238 198.404 28.656 196.837 27.5172L194.176 25.5836C193.475 25.0743 192.525 25.0743 191.824 25.5836L189.163 27.5172C187.596 28.656 185.487 27.1238 186.085 25.2812L187.102 22.1525C187.37 21.3284 187.076 20.4257 186.375 19.9164L183.714 17.9828C182.147 16.844 182.952 14.3647 184.89 14.3647H188.179C189.046 14.3647 189.814 13.8068 190.081 12.9828L191.098 9.8541Z" fill="#FFA630"/>
<path d="M213.098 9.8541C213.697 8.01148 216.303 8.01148 216.902 9.8541L217.919 12.9828C218.186 13.8068 218.954 14.3647 219.821 14.3647H223.11C225.048 14.3647 225.853 16.844 224.286 17.9828L221.625 19.9164C220.924 20.4257 220.63 21.3284 220.898 22.1525L221.915 25.2812C222.513 27.1238 220.404 28.656 218.837 27.5172L216.176 25.5836C215.475 25.0743 214.525 25.0743 213.824 25.5836L211.163 27.5172C209.596 28.656 207.487 27.1238 208.085 25.2812L209.102 22.1525C209.37 21.3284 209.076 20.4257 208.375 19.9164L205.714 17.9828C204.147 16.844 204.952 14.3647 206.89 14.3647H210.179C211.046 14.3647 211.814 13.8068 212.081 12.9828L213.098 9.8541Z" fill="#FFA630"/>
</svg>
